<?xml version="1.0" encoding="utf-8" standalone="no"?>
<!DOCTYPE svg PUBLIC "-//W3C//DTD SVG 1.1//EN"
  "http://www.w3.org/Graphics/SVG/1.1/DTD/svg11.dtd">
<svg height="345.6pt" version="1.1" viewBox="0 0 460.8 345.6" width="460.8pt" xmlns="http://www.w3.org/2000/svg" xmlns:xlink="http://www.w3.org/1999/xlink">
 <metadata>
  <rdf:RDF xmlns:cc="http://creativecommons.org/ns#" xmlns:dc="http://purl.org/dc/elements/1.1/" xmlns:rdf="http://www.w3.org/1999/02/22-rdf-syntax-ns#">
   <cc:Work>
    <dc:type rdf:resource="http://purl.org/dc/dcmitype/StillImage"/>
    <dc:date>2022-01-09T13:58:40.801268</dc:date>
    <dc:format>image/svg+xml</dc:format>
    <dc:creator>
     <cc:Agent>
      <dc:title>Matplotlib v3.4.3, https://matplotlib.org/</dc:title>
     </cc:Agent>
    </dc:creator>
   </cc:Work>
  </rdf:RDF>
 </metadata>
 <defs>
  <style type="text/css">*{stroke-linecap:butt;stroke-linejoin:round;}</style>
 </defs>
 <g id="figure_1">
  <g id="patch_1">
   <path d="M 0 345.6 
L 460.8 345.6 
L 460.8 0 
L 0 0 
z
" style="fill:#ffffff;"/>
  </g>
  <g id="axes_1">
   <g id="patch_2">
    <path d="M 57.6 307.584 
L 414.72 307.584 
L 414.72 41.472 
L 57.6 41.472 
z
" style="fill:#ffffff;"/>
   </g>
   <g id="matplotlib.axis_1">
    <g id="xtick_1">
     <g id="line2d_1">
      <path clip-path="url(#p0a67a93a64)" d="M 73.832727 307.584 
L 73.832727 41.472 
" style="fill:none;stroke:#b0b0b0;stroke-linecap:square;stroke-width:0.8;"/>
     </g>
     <g id="line2d_2">
      <defs>
       <path d="M 0 0 
L 0 3.5 
" id="m88ba83953f" style="stroke:#000000;stroke-width:0.8;"/>
      </defs>
      <g>
       <use style="stroke:#000000;stroke-width:0.8;" x="73.832727" xlink:href="#m88ba83953f" y="307.584"/>
      </g>
     </g>
     <g id="text_1">
      <!-- 0 -->
      <g transform="translate(70.651477 322.182437)scale(0.1 -0.1)">
       <defs>
        <path d="M 2034 4250 
Q 1547 4250 1301 3770 
Q 1056 3291 1056 2328 
Q 1056 1369 1301 889 
Q 1547 409 2034 409 
Q 2525 409 2770 889 
Q 3016 1369 3016 2328 
Q 3016 3291 2770 3770 
Q 2525 4250 2034 4250 
z
M 2034 4750 
Q 2819 4750 3233 4129 
Q 3647 3509 3647 2328 
Q 3647 1150 3233 529 
Q 2819 -91 2034 -91 
Q 1250 -91 836 529 
Q 422 1150 422 2328 
Q 422 3509 836 4129 
Q 1250 4750 2034 4750 
z
" id="DejaVuSans-30" transform="scale(0.015625)"/>
       </defs>
       <use xlink:href="#DejaVuSans-30"/>
      </g>
     </g>
    </g>
    <g id="xtick_2">
     <g id="line2d_3">
      <path clip-path="url(#p0a67a93a64)" d="M 128.122785 307.584 
L 128.122785 41.472 
" style="fill:none;stroke:#b0b0b0;stroke-linecap:square;stroke-width:0.8;"/>
     </g>
     <g id="line2d_4">
      <g>
       <use style="stroke:#000000;stroke-width:0.8;" x="128.122785" xlink:href="#m88ba83953f" y="307.584"/>
      </g>
     </g>
     <g id="text_2">
      <!-- 50 -->
      <g transform="translate(121.760285 322.182437)scale(0.1 -0.1)">
       <defs>
        <path d="M 691 4666 
L 3169 4666 
L 3169 4134 
L 1269 4134 
L 1269 2991 
Q 1406 3038 1543 3061 
Q 1681 3084 1819 3084 
Q 2600 3084 3056 2656 
Q 3513 2228 3513 1497 
Q 3513 744 3044 326 
Q 2575 -91 1722 -91 
Q 1428 -91 1123 -41 
Q 819 9 494 109 
L 494 744 
Q 775 591 1075 516 
Q 1375 441 1709 441 
Q 2250 441 2565 725 
Q 2881 1009 2881 1497 
Q 2881 1984 2565 2268 
Q 2250 2553 1709 2553 
Q 1456 2553 1204 2497 
Q 953 2441 691 2322 
L 691 4666 
z
" id="DejaVuSans-35" transform="scale(0.015625)"/>
       </defs>
       <use xlink:href="#DejaVuSans-35"/>
       <use x="63.623047" xlink:href="#DejaVuSans-30"/>
      </g>
     </g>
    </g>
    <g id="xtick_3">
     <g id="line2d_5">
      <path clip-path="url(#p0a67a93a64)" d="M 182.412843 307.584 
L 182.412843 41.472 
" style="fill:none;stroke:#b0b0b0;stroke-linecap:square;stroke-width:0.8;"/>
     </g>
     <g id="line2d_6">
      <g>
       <use style="stroke:#000000;stroke-width:0.8;" x="182.412843" xlink:href="#m88ba83953f" y="307.584"/>
      </g>
     </g>
     <g id="text_3">
      <!-- 100 -->
      <g transform="translate(172.869093 322.182437)scale(0.1 -0.1)">
       <defs>
        <path d="M 794 531 
L 1825 531 
L 1825 4091 
L 703 3866 
L 703 4441 
L 1819 4666 
L 2450 4666 
L 2450 531 
L 3481 531 
L 3481 0 
L 794 0 
L 794 531 
z
" id="DejaVuSans-31" transform="scale(0.015625)"/>
       </defs>
       <use xlink:href="#DejaVuSans-31"/>
       <use x="63.623047" xlink:href="#DejaVuSans-30"/>
       <use x="127.246094" xlink:href="#DejaVuSans-30"/>
      </g>
     </g>
    </g>
    <g id="xtick_4">
     <g id="line2d_7">
      <path clip-path="url(#p0a67a93a64)" d="M 236.702901 307.584 
L 236.702901 41.472 
" style="fill:none;stroke:#b0b0b0;stroke-linecap:square;stroke-width:0.8;"/>
     </g>
     <g id="line2d_8">
      <g>
       <use style="stroke:#000000;stroke-width:0.8;" x="236.702901" xlink:href="#m88ba83953f" y="307.584"/>
      </g>
     </g>
     <g id="text_4">
      <!-- 150 -->
      <g transform="translate(227.159151 322.182437)scale(0.1 -0.1)">
       <use xlink:href="#DejaVuSans-31"/>
       <use x="63.623047" xlink:href="#DejaVuSans-35"/>
       <use x="127.246094" xlink:href="#DejaVuSans-30"/>
      </g>
     </g>
    </g>
    <g id="xtick_5">
     <g id="line2d_9">
      <path clip-path="url(#p0a67a93a64)" d="M 290.992958 307.584 
L 290.992958 41.472 
" style="fill:none;stroke:#b0b0b0;stroke-linecap:square;stroke-width:0.8;"/>
     </g>
     <g id="line2d_10">
      <g>
       <use style="stroke:#000000;stroke-width:0.8;" x="290.992958" xlink:href="#m88ba83953f" y="307.584"/>
      </g>
     </g>
     <g id="text_5">
      <!-- 200 -->
      <g transform="translate(281.449208 322.182437)scale(0.1 -0.1)">
       <defs>
        <path d="M 1228 531 
L 3431 531 
L 3431 0 
L 469 0 
L 469 531 
Q 828 903 1448 1529 
Q 2069 2156 2228 2338 
Q 2531 2678 2651 2914 
Q 2772 3150 2772 3378 
Q 2772 3750 2511 3984 
Q 2250 4219 1831 4219 
Q 1534 4219 1204 4116 
Q 875 4013 500 3803 
L 500 4441 
Q 881 4594 1212 4672 
Q 1544 4750 1819 4750 
Q 2544 4750 2975 4387 
Q 3406 4025 3406 3419 
Q 3406 3131 3298 2873 
Q 3191 2616 2906 2266 
Q 2828 2175 2409 1742 
Q 1991 1309 1228 531 
z
" id="DejaVuSans-32" transform="scale(0.015625)"/>
       </defs>
       <use xlink:href="#DejaVuSans-32"/>
       <use x="63.623047" xlink:href="#DejaVuSans-30"/>
       <use x="127.246094" xlink:href="#DejaVuSans-30"/>
      </g>
     </g>
    </g>
    <g id="xtick_6">
     <g id="line2d_11">
      <path clip-path="url(#p0a67a93a64)" d="M 345.283016 307.584 
L 345.283016 41.472 
" style="fill:none;stroke:#b0b0b0;stroke-linecap:square;stroke-width:0.8;"/>
     </g>
     <g id="line2d_12">
      <g>
       <use style="stroke:#000000;stroke-width:0.8;" x="345.283016" xlink:href="#m88ba83953f" y="307.584"/>
      </g>
     </g>
     <g id="text_6">
      <!-- 250 -->
      <g transform="translate(335.739266 322.182437)scale(0.1 -0.1)">
       <use xlink:href="#DejaVuSans-32"/>
       <use x="63.623047" xlink:href="#DejaVuSans-35"/>
       <use x="127.246094" xlink:href="#DejaVuSans-30"/>
      </g>
     </g>
    </g>
    <g id="xtick_7">
     <g id="line2d_13">
      <path clip-path="url(#p0a67a93a64)" d="M 399.573074 307.584 
L 399.573074 41.472 
" style="fill:none;stroke:#b0b0b0;stroke-linecap:square;stroke-width:0.8;"/>
     </g>
     <g id="line2d_14">
      <g>
       <use style="stroke:#000000;stroke-width:0.8;" x="399.573074" xlink:href="#m88ba83953f" y="307.584"/>
      </g>
     </g>
     <g id="text_7">
      <!-- 300 -->
      <g transform="translate(390.029324 322.182437)scale(0.1 -0.1)">
       <defs>
        <path d="M 2597 2516 
Q 3050 2419 3304 2112 
Q 3559 1806 3559 1356 
Q 3559 666 3084 287 
Q 2609 -91 1734 -91 
Q 1441 -91 1130 -33 
Q 819 25 488 141 
L 488 750 
Q 750 597 1062 519 
Q 1375 441 1716 441 
Q 2309 441 2620 675 
Q 2931 909 2931 1356 
Q 2931 1769 2642 2001 
Q 2353 2234 1838 2234 
L 1294 2234 
L 1294 2753 
L 1863 2753 
Q 2328 2753 2575 2939 
Q 2822 3125 2822 3475 
Q 2822 3834 2567 4026 
Q 2313 4219 1838 4219 
Q 1578 4219 1281 4162 
Q 984 4106 628 3988 
L 628 4550 
Q 988 4650 1302 4700 
Q 1616 4750 1894 4750 
Q 2613 4750 3031 4423 
Q 3450 4097 3450 3541 
Q 3450 3153 3228 2886 
Q 3006 2619 2597 2516 
z
" id="DejaVuSans-33" transform="scale(0.015625)"/>
       </defs>
       <use xlink:href="#DejaVuSans-33"/>
       <use x="63.623047" xlink:href="#DejaVuSans-30"/>
       <use x="127.246094" xlink:href="#DejaVuSans-30"/>
      </g>
     </g>
    </g>
    <g id="text_8">
     <!-- Generations -->
     <g transform="translate(205.662344 335.860562)scale(0.1 -0.1)">
      <defs>
       <path d="M 3809 666 
L 3809 1919 
L 2778 1919 
L 2778 2438 
L 4434 2438 
L 4434 434 
Q 4069 175 3628 42 
Q 3188 -91 2688 -91 
Q 1594 -91 976 548 
Q 359 1188 359 2328 
Q 359 3472 976 4111 
Q 1594 4750 2688 4750 
Q 3144 4750 3555 4637 
Q 3966 4525 4313 4306 
L 4313 3634 
Q 3963 3931 3569 4081 
Q 3175 4231 2741 4231 
Q 1884 4231 1454 3753 
Q 1025 3275 1025 2328 
Q 1025 1384 1454 906 
Q 1884 428 2741 428 
Q 3075 428 3337 486 
Q 3600 544 3809 666 
z
" id="DejaVuSans-47" transform="scale(0.015625)"/>
       <path d="M 3597 1894 
L 3597 1613 
L 953 1613 
Q 991 1019 1311 708 
Q 1631 397 2203 397 
Q 2534 397 2845 478 
Q 3156 559 3463 722 
L 3463 178 
Q 3153 47 2828 -22 
Q 2503 -91 2169 -91 
Q 1331 -91 842 396 
Q 353 884 353 1716 
Q 353 2575 817 3079 
Q 1281 3584 2069 3584 
Q 2775 3584 3186 3129 
Q 3597 2675 3597 1894 
z
M 3022 2063 
Q 3016 2534 2758 2815 
Q 2500 3097 2075 3097 
Q 1594 3097 1305 2825 
Q 1016 2553 972 2059 
L 3022 2063 
z
" id="DejaVuSans-65" transform="scale(0.015625)"/>
       <path d="M 3513 2113 
L 3513 0 
L 2938 0 
L 2938 2094 
Q 2938 2591 2744 2837 
Q 2550 3084 2163 3084 
Q 1697 3084 1428 2787 
Q 1159 2491 1159 1978 
L 1159 0 
L 581 0 
L 581 3500 
L 1159 3500 
L 1159 2956 
Q 1366 3272 1645 3428 
Q 1925 3584 2291 3584 
Q 2894 3584 3203 3211 
Q 3513 2838 3513 2113 
z
" id="DejaVuSans-6e" transform="scale(0.015625)"/>
       <path d="M 2631 2963 
Q 2534 3019 2420 3045 
Q 2306 3072 2169 3072 
Q 1681 3072 1420 2755 
Q 1159 2438 1159 1844 
L 1159 0 
L 581 0 
L 581 3500 
L 1159 3500 
L 1159 2956 
Q 1341 3275 1631 3429 
Q 1922 3584 2338 3584 
Q 2397 3584 2469 3576 
Q 2541 3569 2628 3553 
L 2631 2963 
z
" id="DejaVuSans-72" transform="scale(0.015625)"/>
       <path d="M 2194 1759 
Q 1497 1759 1228 1600 
Q 959 1441 959 1056 
Q 959 750 1161 570 
Q 1363 391 1709 391 
Q 2188 391 2477 730 
Q 2766 1069 2766 1631 
L 2766 1759 
L 2194 1759 
z
M 3341 1997 
L 3341 0 
L 2766 0 
L 2766 531 
Q 2569 213 2275 61 
Q 1981 -91 1556 -91 
Q 1019 -91 701 211 
Q 384 513 384 1019 
Q 384 1609 779 1909 
Q 1175 2209 1959 2209 
L 2766 2209 
L 2766 2266 
Q 2766 2663 2505 2880 
Q 2244 3097 1772 3097 
Q 1472 3097 1187 3025 
Q 903 2953 641 2809 
L 641 3341 
Q 956 3463 1253 3523 
Q 1550 3584 1831 3584 
Q 2591 3584 2966 3190 
Q 3341 2797 3341 1997 
z
" id="DejaVuSans-61" transform="scale(0.015625)"/>
       <path d="M 1172 4494 
L 1172 3500 
L 2356 3500 
L 2356 3053 
L 1172 3053 
L 1172 1153 
Q 1172 725 1289 603 
Q 1406 481 1766 481 
L 2356 481 
L 2356 0 
L 1766 0 
Q 1100 0 847 248 
Q 594 497 594 1153 
L 594 3053 
L 172 3053 
L 172 3500 
L 594 3500 
L 594 4494 
L 1172 4494 
z
" id="DejaVuSans-74" transform="scale(0.015625)"/>
       <path d="M 603 3500 
L 1178 3500 
L 1178 0 
L 603 0 
L 603 3500 
z
M 603 4863 
L 1178 4863 
L 1178 4134 
L 603 4134 
L 603 4863 
z
" id="DejaVuSans-69" transform="scale(0.015625)"/>
       <path d="M 1959 3097 
Q 1497 3097 1228 2736 
Q 959 2375 959 1747 
Q 959 1119 1226 758 
Q 1494 397 1959 397 
Q 2419 397 2687 759 
Q 2956 1122 2956 1747 
Q 2956 2369 2687 2733 
Q 2419 3097 1959 3097 
z
M 1959 3584 
Q 2709 3584 3137 3096 
Q 3566 2609 3566 1747 
Q 3566 888 3137 398 
Q 2709 -91 1959 -91 
Q 1206 -91 779 398 
Q 353 888 353 1747 
Q 353 2609 779 3096 
Q 1206 3584 1959 3584 
z
" id="DejaVuSans-6f" transform="scale(0.015625)"/>
       <path d="M 2834 3397 
L 2834 2853 
Q 2591 2978 2328 3040 
Q 2066 3103 1784 3103 
Q 1356 3103 1142 2972 
Q 928 2841 928 2578 
Q 928 2378 1081 2264 
Q 1234 2150 1697 2047 
L 1894 2003 
Q 2506 1872 2764 1633 
Q 3022 1394 3022 966 
Q 3022 478 2636 193 
Q 2250 -91 1575 -91 
Q 1294 -91 989 -36 
Q 684 19 347 128 
L 347 722 
Q 666 556 975 473 
Q 1284 391 1588 391 
Q 1994 391 2212 530 
Q 2431 669 2431 922 
Q 2431 1156 2273 1281 
Q 2116 1406 1581 1522 
L 1381 1569 
Q 847 1681 609 1914 
Q 372 2147 372 2553 
Q 372 3047 722 3315 
Q 1072 3584 1716 3584 
Q 2034 3584 2315 3537 
Q 2597 3491 2834 3397 
z
" id="DejaVuSans-73" transform="scale(0.015625)"/>
      </defs>
      <use xlink:href="#DejaVuSans-47"/>
      <use x="77.490234" xlink:href="#DejaVuSans-65"/>
      <use x="139.013672" xlink:href="#DejaVuSans-6e"/>
      <use x="202.392578" xlink:href="#DejaVuSans-65"/>
      <use x="263.916016" xlink:href="#DejaVuSans-72"/>
      <use x="305.029297" xlink:href="#DejaVuSans-61"/>
      <use x="366.308594" xlink:href="#DejaVuSans-74"/>
      <use x="405.517578" xlink:href="#DejaVuSans-69"/>
      <use x="433.300781" xlink:href="#DejaVuSans-6f"/>
      <use x="494.482422" xlink:href="#DejaVuSans-6e"/>
      <use x="557.861328" xlink:href="#DejaVuSans-73"/>
     </g>
    </g>
   </g>
   <g id="matplotlib.axis_2">
    <g id="ytick_1">
     <g id="line2d_15">
      <path clip-path="url(#p0a67a93a64)" d="M 57.6 291.057193 
L 414.72 291.057193 
" style="fill:none;stroke:#b0b0b0;stroke-linecap:square;stroke-width:0.8;"/>
     </g>
     <g id="line2d_16">
      <defs>
       <path d="M 0 0 
L -3.5 0 
" id="m8dee88a3a9" style="stroke:#000000;stroke-width:0.8;"/>
      </defs>
      <g>
       <use style="stroke:#000000;stroke-width:0.8;" x="57.6" xlink:href="#m8dee88a3a9" y="291.057193"/>
      </g>
     </g>
     <g id="text_9">
      <!-- −3 -->
      <g transform="translate(35.857813 294.856411)scale(0.1 -0.1)">
       <defs>
        <path d="M 678 2272 
L 4684 2272 
L 4684 1741 
L 678 1741 
L 678 2272 
z
" id="DejaVuSans-2212" transform="scale(0.015625)"/>
       </defs>
       <use xlink:href="#DejaVuSans-2212"/>
       <use x="83.789062" xlink:href="#DejaVuSans-33"/>
      </g>
     </g>
    </g>
    <g id="ytick_2">
     <g id="line2d_17">
      <path clip-path="url(#p0a67a93a64)" d="M 57.6 259.858142 
L 414.72 259.858142 
" style="fill:none;stroke:#b0b0b0;stroke-linecap:square;stroke-width:0.8;"/>
     </g>
     <g id="line2d_18">
      <g>
       <use style="stroke:#000000;stroke-width:0.8;" x="57.6" xlink:href="#m8dee88a3a9" y="259.858142"/>
      </g>
     </g>
     <g id="text_10">
      <!-- −2 -->
      <g transform="translate(35.857813 263.65736)scale(0.1 -0.1)">
       <use xlink:href="#DejaVuSans-2212"/>
       <use x="83.789062" xlink:href="#DejaVuSans-32"/>
      </g>
     </g>
    </g>
    <g id="ytick_3">
     <g id="line2d_19">
      <path clip-path="url(#p0a67a93a64)" d="M 57.6 228.659091 
L 414.72 228.659091 
" style="fill:none;stroke:#b0b0b0;stroke-linecap:square;stroke-width:0.8;"/>
     </g>
     <g id="line2d_20">
      <g>
       <use style="stroke:#000000;stroke-width:0.8;" x="57.6" xlink:href="#m8dee88a3a9" y="228.659091"/>
      </g>
     </g>
     <g id="text_11">
      <!-- −1 -->
      <g transform="translate(35.857813 232.458309)scale(0.1 -0.1)">
       <use xlink:href="#DejaVuSans-2212"/>
       <use x="83.789062" xlink:href="#DejaVuSans-31"/>
      </g>
     </g>
    </g>
    <g id="ytick_4">
     <g id="line2d_21">
      <path clip-path="url(#p0a67a93a64)" d="M 57.6 197.460039 
L 414.72 197.460039 
" style="fill:none;stroke:#b0b0b0;stroke-linecap:square;stroke-width:0.8;"/>
     </g>
     <g id="line2d_22">
      <g>
       <use style="stroke:#000000;stroke-width:0.8;" x="57.6" xlink:href="#m8dee88a3a9" y="197.460039"/>
      </g>
     </g>
     <g id="text_12">
      <!-- 0 -->
      <g transform="translate(44.2375 201.259258)scale(0.1 -0.1)">
       <use xlink:href="#DejaVuSans-30"/>
      </g>
     </g>
    </g>
    <g id="ytick_5">
     <g id="line2d_23">
      <path clip-path="url(#p0a67a93a64)" d="M 57.6 166.260988 
L 414.72 166.260988 
" style="fill:none;stroke:#b0b0b0;stroke-linecap:square;stroke-width:0.8;"/>
     </g>
     <g id="line2d_24">
      <g>
       <use style="stroke:#000000;stroke-width:0.8;" x="57.6" xlink:href="#m8dee88a3a9" y="166.260988"/>
      </g>
     </g>
     <g id="text_13">
      <!-- 1 -->
      <g transform="translate(44.2375 170.060207)scale(0.1 -0.1)">
       <use xlink:href="#DejaVuSans-31"/>
      </g>
     </g>
    </g>
    <g id="ytick_6">
     <g id="line2d_25">
      <path clip-path="url(#p0a67a93a64)" d="M 57.6 135.061937 
L 414.72 135.061937 
" style="fill:none;stroke:#b0b0b0;stroke-linecap:square;stroke-width:0.8;"/>
     </g>
     <g id="line2d_26">
      <g>
       <use style="stroke:#000000;stroke-width:0.8;" x="57.6" xlink:href="#m8dee88a3a9" y="135.061937"/>
      </g>
     </g>
     <g id="text_14">
      <!-- 2 -->
      <g transform="translate(44.2375 138.861156)scale(0.1 -0.1)">
       <use xlink:href="#DejaVuSans-32"/>
      </g>
     </g>
    </g>
    <g id="ytick_7">
     <g id="line2d_27">
      <path clip-path="url(#p0a67a93a64)" d="M 57.6 103.862886 
L 414.72 103.862886 
" style="fill:none;stroke:#b0b0b0;stroke-linecap:square;stroke-width:0.8;"/>
     </g>
     <g id="line2d_28">
      <g>
       <use style="stroke:#000000;stroke-width:0.8;" x="57.6" xlink:href="#m8dee88a3a9" y="103.862886"/>
      </g>
     </g>
     <g id="text_15">
      <!-- 3 -->
      <g transform="translate(44.2375 107.662105)scale(0.1 -0.1)">
       <use xlink:href="#DejaVuSans-33"/>
      </g>
     </g>
    </g>
    <g id="ytick_8">
     <g id="line2d_29">
      <path clip-path="url(#p0a67a93a64)" d="M 57.6 72.663835 
L 414.72 72.663835 
" style="fill:none;stroke:#b0b0b0;stroke-linecap:square;stroke-width:0.8;"/>
     </g>
     <g id="line2d_30">
      <g>
       <use style="stroke:#000000;stroke-width:0.8;" x="57.6" xlink:href="#m8dee88a3a9" y="72.663835"/>
      </g>
     </g>
     <g id="text_16">
      <!-- 4 -->
      <g transform="translate(44.2375 76.463054)scale(0.1 -0.1)">
       <defs>
        <path d="M 2419 4116 
L 825 1625 
L 2419 1625 
L 2419 4116 
z
M 2253 4666 
L 3047 4666 
L 3047 1625 
L 3713 1625 
L 3713 1100 
L 3047 1100 
L 3047 0 
L 2419 0 
L 2419 1100 
L 313 1100 
L 313 1709 
L 2253 4666 
z
" id="DejaVuSans-34" transform="scale(0.015625)"/>
       </defs>
       <use xlink:href="#DejaVuSans-34"/>
      </g>
     </g>
    </g>
    <g id="text_17">
     <!-- Fitness -->
     <g transform="translate(29.778125 191.845187)rotate(-90)scale(0.1 -0.1)">
      <defs>
       <path d="M 628 4666 
L 3309 4666 
L 3309 4134 
L 1259 4134 
L 1259 2759 
L 3109 2759 
L 3109 2228 
L 1259 2228 
L 1259 0 
L 628 0 
L 628 4666 
z
" id="DejaVuSans-46" transform="scale(0.015625)"/>
      </defs>
      <use xlink:href="#DejaVuSans-46"/>
      <use x="50.269531" xlink:href="#DejaVuSans-69"/>
      <use x="78.052734" xlink:href="#DejaVuSans-74"/>
      <use x="117.261719" xlink:href="#DejaVuSans-6e"/>
      <use x="180.640625" xlink:href="#DejaVuSans-65"/>
      <use x="242.164062" xlink:href="#DejaVuSans-73"/>
      <use x="294.263672" xlink:href="#DejaVuSans-73"/>
     </g>
    </g>
   </g>
   <g id="line2d_31">
    <path clip-path="url(#p0a67a93a64)" d="M 73.832727 238.910016 
L 74.918528 188.9621 
L 76.00433 166.107534 
L 77.090131 150.02839 
L 78.175932 137.780952 
L 79.261733 135.151606 
L 80.347534 119.384857 
L 81.433335 114.712928 
L 82.519137 113.989609 
L 83.604938 115.476794 
L 84.690739 108.021772 
L 86.862341 104.24879 
L 87.948142 98.930976 
L 89.033943 103.739234 
L 90.119745 98.480498 
L 91.205546 102.122597 
L 92.291347 96.609016 
L 93.377148 94.659584 
L 94.462949 93.975628 
L 95.54875 99.183917 
L 96.634552 102.293826 
L 97.720353 99.917837 
L 98.806154 102.165656 
L 99.891955 101.234571 
L 100.977756 96.375496 
L 102.063557 101.270306 
L 103.149358 96.544309 
L 104.23516 101.125973 
L 105.320961 98.705853 
L 106.406762 99.643233 
L 107.492563 99.528579 
L 108.578364 97.457386 
L 109.664165 98.537624 
L 110.749967 91.263074 
L 111.835768 91.991057 
L 112.921569 96.51231 
L 114.00737 94.905816 
L 115.093171 97.43674 
L 116.178972 95.010852 
L 117.264773 94.085484 
L 118.350575 95.531729 
L 119.436376 94.593559 
L 120.522177 98.811967 
L 121.607978 94.220253 
L 122.693779 91.501619 
L 123.77958 96.597897 
L 124.865382 95.294836 
L 125.951183 100.423717 
L 127.036984 96.443861 
L 128.122785 99.083155 
L 129.208586 93.212631 
L 130.294387 93.06879 
L 131.380189 92.355168 
L 132.46599 91.857893 
L 133.551791 93.870663 
L 134.637592 93.135187 
L 135.723393 98.147756 
L 136.809194 95.141797 
L 137.894995 98.654685 
L 138.980797 92.856676 
L 140.066598 100.255036 
L 141.152399 91.792726 
L 142.2382 97.608831 
L 143.324001 96.710488 
L 144.409802 96.896065 
L 145.495604 89.688683 
L 146.581405 96.760416 
L 147.667206 96.057967 
L 148.753007 89.958268 
L 149.838808 94.264462 
L 150.924609 91.851298 
L 152.01041 99.787815 
L 153.096212 93.214399 
L 154.182013 96.425926 
L 155.267814 97.178159 
L 156.353615 102.499666 
L 157.439416 98.370604 
L 158.525217 93.309274 
L 159.611019 98.26462 
L 160.69682 95.898139 
L 161.782621 94.202937 
L 162.868422 99.15665 
L 163.954223 94.559099 
L 165.040024 96.926658 
L 166.125825 95.902239 
L 167.211627 91.427588 
L 168.297428 101.789644 
L 169.383229 96.359556 
L 170.46903 95.149875 
L 171.554831 93.757412 
L 172.640632 96.55543 
L 173.726434 93.458354 
L 174.812235 91.618607 
L 175.898036 91.967547 
L 176.983837 95.980143 
L 178.069638 95.170164 
L 179.155439 94.717229 
L 180.24124 98.097339 
L 181.327042 93.599463 
L 182.412843 93.525107 
L 183.498644 97.512775 
L 184.584445 92.994244 
L 185.670246 95.362187 
L 186.756047 96.912883 
L 187.841849 101.397009 
L 188.92765 95.660958 
L 190.013451 97.836961 
L 191.099252 99.193761 
L 192.185053 99.052056 
L 193.270854 93.393495 
L 194.356656 94.714149 
L 195.442457 95.379905 
L 196.528258 103.199799 
L 197.614059 98.329586 
L 198.69986 97.622354 
L 199.785661 93.418733 
L 200.871462 97.916928 
L 201.957264 96.938097 
L 203.043065 90.518341 
L 204.128866 100.355395 
L 205.214667 95.294973 
L 206.300468 97.374064 
L 207.386269 100.070072 
L 208.472071 94.366786 
L 209.557872 97.158969 
L 212.815275 95.080665 
L 213.901076 95.256018 
L 214.986877 90.356593 
L 216.072679 93.894129 
L 217.15848 94.939569 
L 218.244281 89.562641 
L 219.330082 94.142295 
L 220.415883 89.705271 
L 221.501684 94.101762 
L 222.587486 90.384848 
L 223.673287 87.557011 
L 224.759088 93.148366 
L 225.844889 91.836903 
L 226.93069 89.534597 
L 228.016491 93.084517 
L 229.102292 95.123018 
L 230.188094 92.193165 
L 231.273895 90.903536 
L 232.359696 90.219074 
L 233.445497 96.434888 
L 234.531298 96.910305 
L 235.617099 96.759983 
L 236.702901 94.694255 
L 237.788702 92.027886 
L 238.874503 95.909668 
L 239.960304 91.782559 
L 241.046105 95.283418 
L 242.131906 95.578492 
L 243.217708 94.638984 
L 244.303509 96.904385 
L 245.38931 98.875286 
L 246.475111 92.670783 
L 247.560912 96.210434 
L 248.646713 94.372217 
L 249.732514 93.301437 
L 250.818316 96.687764 
L 251.904117 99.492377 
L 252.989918 94.687278 
L 254.075719 93.951126 
L 255.16152 88.668945 
L 256.247321 87.593067 
L 257.333123 94.455154 
L 258.418924 91.745813 
L 259.504725 90.259644 
L 260.590526 94.182692 
L 261.676327 94.033137 
L 262.762128 96.851957 
L 263.847929 94.800508 
L 264.933731 94.478727 
L 266.019532 95.093109 
L 267.105333 94.716812 
L 268.191134 92.927186 
L 269.276935 98.745344 
L 270.362736 92.51679 
L 271.448538 96.195349 
L 272.534339 95.605412 
L 273.62014 99.03646 
L 274.705941 92.792319 
L 275.791742 98.299569 
L 276.877543 99.542435 
L 277.963344 92.722334 
L 279.049146 96.322606 
L 280.134947 95.874579 
L 281.220748 89.232894 
L 282.306549 93.922421 
L 283.39235 94.555442 
L 284.478151 93.412592 
L 285.563953 99.070934 
L 286.649754 92.726552 
L 287.735555 94.201035 
L 288.821356 88.927015 
L 289.907157 97.530337 
L 290.992958 212.400138 
L 292.07876 178.916054 
L 293.164561 158.413186 
L 294.250362 140.043943 
L 295.336163 127.11311 
L 296.421964 117.648116 
L 297.507765 112.849093 
L 298.593566 114.846459 
L 299.679368 106.601317 
L 300.765169 105.730802 
L 301.85097 105.472285 
L 302.936771 109.397721 
L 304.022572 108.306412 
L 305.108373 106.936543 
L 306.194175 100.723806 
L 307.279976 113.893777 
L 308.365777 109.784514 
L 309.451578 106.926604 
L 310.537379 107.199623 
L 311.62318 104.232625 
L 312.708981 93.732397 
L 313.794783 102.16234 
L 314.880584 101.442819 
L 315.966385 94.216095 
L 317.052186 101.496048 
L 318.137987 99.851138 
L 319.223788 97.027242 
L 320.30959 99.314426 
L 321.395391 95.015936 
L 322.481192 104.999159 
L 323.566993 97.83058 
L 324.652794 97.528664 
L 325.738595 95.657504 
L 326.824396 95.354424 
L 327.910198 97.214565 
L 328.995999 91.725718 
L 330.0818 93.356611 
L 331.167601 93.158968 
L 332.253402 98.064178 
L 333.339203 99.036434 
L 334.425005 98.247517 
L 335.510806 91.596886 
L 336.596607 97.539813 
L 337.682408 96.920106 
L 338.768209 91.315584 
L 339.85401 95.378063 
L 340.939811 93.732614 
L 342.025613 99.303671 
L 343.111414 95.04813 
L 344.197215 94.710832 
L 345.283016 93.333686 
L 346.368817 97.834494 
L 347.454618 92.159389 
L 348.54042 93.512737 
L 349.626221 93.771341 
L 350.712022 91.219316 
L 351.797823 90.090013 
L 352.883624 95.674361 
L 353.969425 95.235621 
L 355.055227 95.847103 
L 356.141028 92.402407 
L 357.226829 102.000588 
L 358.31263 98.846019 
L 359.398431 104.903605 
L 361.570033 94.206661 
L 362.655835 97.250135 
L 363.741636 101.401001 
L 364.827437 99.425454 
L 365.913238 95.993654 
L 366.999039 102.465708 
L 368.08484 97.27643 
L 369.170642 95.291264 
L 370.256443 99.716788 
L 371.342244 96.876868 
L 372.428045 95.969084 
L 373.513846 100.018568 
L 374.599647 95.883777 
L 375.685448 96.817498 
L 376.77125 93.734774 
L 377.857051 98.129907 
L 378.942852 98.407966 
L 380.028653 96.817276 
L 381.114454 94.608776 
L 382.200255 95.96192 
L 383.286057 95.096207 
L 384.371858 98.374059 
L 385.457659 93.165258 
L 386.54346 95.379399 
L 387.629261 96.057235 
L 388.715062 94.955067 
L 389.800863 94.840988 
L 391.972466 93.857882 
L 393.058267 93.079282 
L 394.144068 99.222179 
L 395.229869 95.439118 
L 396.31567 92.501832 
L 397.401472 93.27059 
L 398.487273 95.115374 
L 398.487273 95.115374 
" style="fill:none;stroke:#0000ff;stroke-linecap:square;stroke-width:1.5;"/>
   </g>
   <g id="line2d_32">
    <path clip-path="url(#p0a67a93a64)" d="M 73.832727 295.488 
L 74.918528 234.847089 
L 76.00433 208.084618 
L 78.175932 174.981854 
L 79.261733 175.092218 
L 80.347534 154.610892 
L 81.433335 147.986797 
L 82.519137 147.263566 
L 83.604938 150.411539 
L 84.690739 142.406489 
L 85.77654 138.72341 
L 86.862341 133.787267 
L 87.948142 125.025486 
L 89.033943 140.220698 
L 90.119745 127.37997 
L 91.205546 137.546676 
L 92.291347 124.784996 
L 93.377148 125.099377 
L 94.462949 126.418252 
L 95.54875 132.753588 
L 96.634552 132.262874 
L 97.720353 131.985148 
L 98.806154 136.184735 
L 99.891955 134.368882 
L 100.977756 123.329207 
L 102.063557 131.232179 
L 103.149358 128.007102 
L 104.23516 142.996641 
L 105.320961 129.583205 
L 106.406762 130.513647 
L 107.492563 129.840784 
L 108.578364 128.611234 
L 109.664165 135.149509 
L 110.749967 115.806786 
L 111.835768 115.813405 
L 112.921569 126.833642 
L 114.00737 129.00014 
L 115.093171 124.951032 
L 116.178972 119.599146 
L 117.264773 120.554801 
L 118.350575 125.68468 
L 119.436376 121.809517 
L 120.522177 130.194481 
L 121.607978 120.859307 
L 122.693779 120.081308 
L 123.77958 125.622358 
L 124.865382 125.103911 
L 125.951183 135.517883 
L 127.036984 130.497318 
L 128.122785 131.988238 
L 129.208586 125.676827 
L 130.294387 125.900631 
L 131.380189 127.671145 
L 132.46599 117.828434 
L 133.551791 121.351025 
L 135.723393 131.613024 
L 136.809194 127.92142 
L 137.894995 133.568233 
L 138.980797 119.505864 
L 140.066598 138.285474 
L 141.152399 117.715772 
L 142.2382 129.289098 
L 143.324001 130.58631 
L 144.409802 130.577633 
L 145.495604 114.38906 
L 146.581405 124.974398 
L 147.667206 128.145582 
L 148.753007 114.128544 
L 149.838808 123.605582 
L 150.924609 116.269143 
L 152.01041 135.592923 
L 153.096212 121.260372 
L 154.182013 123.964889 
L 155.267814 129.366411 
L 156.353615 137.332609 
L 157.439416 132.495997 
L 158.525217 123.188009 
L 159.611019 130.001757 
L 160.69682 127.695623 
L 161.782621 127.90967 
L 162.868422 134.449399 
L 163.954223 126.258766 
L 165.040024 132.373914 
L 166.125825 130.371284 
L 167.211627 115.837706 
L 168.297428 141.498797 
L 169.383229 126.188697 
L 170.46903 131.527691 
L 171.554831 126.161733 
L 172.640632 130.147652 
L 173.726434 125.732642 
L 174.812235 120.517694 
L 175.898036 122.583542 
L 176.983837 128.497814 
L 178.069638 129.52898 
L 179.155439 123.737193 
L 180.24124 128.755729 
L 181.327042 122.128998 
L 182.412843 120.382822 
L 183.498644 129.064192 
L 184.584445 120.397212 
L 185.670246 128.638615 
L 186.756047 134.158545 
L 187.841849 143.118905 
L 188.92765 124.539326 
L 190.013451 127.156327 
L 191.099252 132.77559 
L 192.185053 135.920945 
L 193.270854 123.388308 
L 195.442457 125.723671 
L 196.528258 143.39001 
L 197.614059 134.715276 
L 198.69986 132.798444 
L 199.785661 120.745947 
L 200.871462 133.695763 
L 201.957264 132.525762 
L 203.043065 118.759227 
L 204.128866 142.424242 
L 205.214667 133.823731 
L 206.300468 129.620986 
L 207.386269 140.020358 
L 208.472071 127.407416 
L 209.557872 132.639488 
L 210.643673 132.248253 
L 211.729474 135.628664 
L 212.815275 131.665256 
L 213.901076 129.922529 
L 214.986877 117.522259 
L 216.072679 121.225371 
L 217.15848 129.596102 
L 218.244281 115.836692 
L 219.330082 125.741588 
L 220.415883 113.980454 
L 221.501684 123.396325 
L 222.587486 118.152269 
L 223.673287 111.815432 
L 224.759088 124.755692 
L 225.844889 124.354187 
L 226.93069 115.012659 
L 229.102292 132.378066 
L 230.188094 120.748304 
L 231.273895 120.887291 
L 232.359696 125.203788 
L 233.445497 134.195709 
L 234.531298 134.657613 
L 235.617099 126.54224 
L 236.702901 127.657323 
L 237.788702 123.92336 
L 238.874503 131.539255 
L 239.960304 121.635063 
L 241.046105 136.998836 
L 243.217708 124.342159 
L 244.303509 135.757044 
L 245.38931 138.511789 
L 246.475111 120.910803 
L 247.560912 129.831854 
L 248.646713 122.965996 
L 249.732514 123.766764 
L 250.818316 129.535876 
L 251.904117 136.355399 
L 252.989918 127.777147 
L 254.075719 128.105713 
L 255.16152 118.760253 
L 256.247321 114.130757 
L 257.333123 132.100071 
L 258.418924 122.038042 
L 259.504725 118.166766 
L 260.590526 125.214043 
L 261.676327 126.794757 
L 262.762128 135.862352 
L 263.847929 128.09463 
L 264.933731 130.845031 
L 266.019532 127.67406 
L 267.105333 129.570865 
L 268.191134 124.828266 
L 269.276935 134.730209 
L 270.362736 121.450754 
L 271.448538 127.398303 
L 272.534339 132.171387 
L 273.62014 133.694256 
L 274.705941 126.804223 
L 275.791742 133.489981 
L 276.877543 135.068528 
L 277.963344 121.912937 
L 279.049146 131.641269 
L 280.134947 127.746536 
L 281.220748 116.925469 
L 282.306549 125.419993 
L 283.39235 128.504892 
L 284.478151 122.892687 
L 285.563953 137.170495 
L 286.649754 122.771698 
L 287.735555 125.509152 
L 288.821356 112.015627 
L 289.907157 132.883821 
L 290.992958 252.165276 
L 292.07876 220.10022 
L 293.164561 199.858601 
L 294.250362 182.750497 
L 295.336163 167.693011 
L 296.421964 157.931416 
L 297.507765 144.371661 
L 298.593566 147.422878 
L 299.679368 137.268486 
L 300.765169 135.276898 
L 301.85097 136.906845 
L 302.936771 142.744786 
L 304.022572 145.969549 
L 305.108373 137.221494 
L 306.194175 130.129085 
L 307.279976 148.021308 
L 308.365777 143.822755 
L 309.451578 145.539696 
L 310.537379 143.16731 
L 311.62318 138.499972 
L 312.708981 117.41 
L 313.794783 133.118949 
L 314.880584 130.541342 
L 315.966385 122.14088 
L 317.052186 136.161333 
L 318.137987 133.24995 
L 319.223788 126.343905 
L 320.30959 128.113154 
L 321.395391 120.78346 
L 322.481192 137.712004 
L 323.566993 127.310187 
L 324.652794 126.237531 
L 325.738595 123.482822 
L 326.824396 124.951992 
L 327.910198 129.203314 
L 328.995999 115.906083 
L 330.0818 123.824533 
L 331.167601 118.395151 
L 332.253402 139.007479 
L 333.339203 130.976958 
L 334.425005 132.117263 
L 335.510806 115.968162 
L 336.596607 134.816905 
L 337.682408 121.515807 
L 338.768209 121.923238 
L 339.85401 126.625649 
L 340.939811 118.653302 
L 342.025613 127.492228 
L 343.111414 126.706367 
L 344.197215 122.711446 
L 345.283016 122.489547 
L 346.368817 126.254563 
L 347.454618 117.118026 
L 348.54042 121.66979 
L 349.626221 122.900075 
L 350.712022 116.004798 
L 351.797823 116.002166 
L 352.883624 126.977877 
L 353.969425 123.850197 
L 355.055227 126.354004 
L 356.141028 118.722909 
L 357.226829 141.186923 
L 358.31263 134.435843 
L 359.398431 144.825436 
L 360.484232 133.02851 
L 361.570033 123.556409 
L 362.655835 124.906301 
L 363.741636 132.056224 
L 364.827437 134.782306 
L 365.913238 124.298303 
L 366.999039 141.741659 
L 368.08484 136.053735 
L 369.170642 126.85513 
L 370.256443 138.104189 
L 371.342244 131.029573 
L 372.428045 127.139259 
L 373.513846 139.992428 
L 374.599647 127.479133 
L 375.685448 124.86734 
L 376.77125 120.743992 
L 377.857051 135.781552 
L 378.942852 129.494095 
L 380.028653 132.316942 
L 381.114454 122.609582 
L 382.200255 129.284137 
L 383.286057 132.017827 
L 384.371858 135.179516 
L 385.457659 123.183786 
L 386.54346 120.199844 
L 387.629261 122.063704 
L 388.715062 128.323888 
L 389.800863 126.648887 
L 390.886665 128.673041 
L 391.972466 120.464533 
L 393.058267 120.88956 
L 394.144068 137.035846 
L 396.31567 117.724651 
L 397.401472 122.099034 
L 398.487273 129.857912 
L 398.487273 129.857912 
" style="fill:none;stroke:#008000;stroke-dasharray:9.6,2.4,1.5,2.4;stroke-dashoffset:0;stroke-width:1.5;"/>
   </g>
   <g id="line2d_33">
    <path clip-path="url(#p0a67a93a64)" d="M 73.832727 182.332032 
L 74.918528 143.07711 
L 76.00433 124.130451 
L 77.090131 109.134253 
L 78.175932 100.58005 
L 79.261733 95.210995 
L 80.347534 84.158822 
L 81.433335 81.439058 
L 82.519137 80.715651 
L 83.604938 80.54205 
L 84.690739 73.637055 
L 85.77654 73.441431 
L 86.862341 74.710313 
L 87.948142 72.836466 
L 89.033943 67.25777 
L 90.119745 69.581025 
L 91.205546 66.698519 
L 92.291347 68.433036 
L 93.377148 64.219792 
L 94.462949 61.533005 
L 95.54875 65.614246 
L 96.634552 72.324779 
L 97.720353 67.850525 
L 98.806154 68.146578 
L 99.891955 68.100259 
L 100.977756 69.421786 
L 102.063557 71.308432 
L 104.23516 59.255305 
L 105.320961 67.828501 
L 106.406762 68.77282 
L 107.492563 69.216374 
L 108.578364 66.303538 
L 109.664165 61.92574 
L 110.749967 66.719361 
L 111.835768 68.168709 
L 112.921569 66.190978 
L 114.00737 60.811492 
L 115.093171 69.922447 
L 116.178972 70.422558 
L 117.264773 67.616167 
L 118.350575 65.378778 
L 119.436376 67.377601 
L 121.607978 67.5812 
L 122.693779 62.92193 
L 123.77958 67.573436 
L 124.865382 65.48576 
L 125.951183 65.329551 
L 127.036984 62.390405 
L 128.122785 66.178071 
L 129.208586 60.748434 
L 130.294387 60.236948 
L 131.380189 57.039191 
L 132.46599 65.887352 
L 133.551791 66.390301 
L 134.637592 59.950518 
L 135.723393 64.682488 
L 136.809194 62.362173 
L 137.894995 63.741138 
L 138.980797 66.207489 
L 140.066598 62.224597 
L 141.152399 65.86968 
L 142.2382 65.928564 
L 143.324001 62.834666 
L 144.409802 63.214497 
L 145.495604 64.988306 
L 146.581405 68.546433 
L 147.667206 63.970352 
L 148.753007 65.787991 
L 149.838808 64.923343 
L 150.924609 67.433454 
L 152.01041 63.982706 
L 153.096212 65.168425 
L 154.182013 68.886962 
L 155.267814 64.989907 
L 156.353615 67.666723 
L 157.439416 64.245211 
L 158.525217 63.430539 
L 159.611019 66.527483 
L 160.69682 64.100656 
L 161.782621 60.496205 
L 162.868422 63.863901 
L 163.954223 62.859432 
L 165.040024 61.479403 
L 166.125825 61.433195 
L 167.211627 67.01747 
L 168.297428 62.080492 
L 169.383229 66.530415 
L 170.46903 58.772059 
L 171.554831 61.353092 
L 172.640632 62.963207 
L 173.726434 61.184067 
L 174.812235 62.719521 
L 175.898036 61.351552 
L 176.983837 63.462472 
L 178.069638 60.811347 
L 179.155439 65.697266 
L 180.24124 67.438949 
L 181.327042 65.069928 
L 182.412843 66.667393 
L 183.498644 65.961358 
L 184.584445 65.591277 
L 185.670246 62.085758 
L 186.756047 59.667221 
L 187.841849 59.675113 
L 188.92765 66.78259 
L 190.013451 68.517594 
L 191.099252 65.611932 
L 192.185053 62.183167 
L 193.270854 63.398683 
L 194.356656 64.87321 
L 195.442457 65.036139 
L 196.528258 63.009587 
L 197.614059 61.943897 
L 198.69986 62.446264 
L 199.785661 66.091519 
L 200.871462 62.138093 
L 201.957264 61.350432 
L 203.043065 62.277455 
L 204.128866 58.286547 
L 205.214667 56.766215 
L 206.300468 65.127141 
L 207.386269 60.119785 
L 208.472071 61.326155 
L 209.557872 61.67845 
L 210.643673 60.721312 
L 211.729474 56.003017 
L 212.815275 58.496075 
L 213.901076 60.589507 
L 214.986877 63.190927 
L 216.072679 66.562888 
L 217.15848 60.283035 
L 218.244281 63.28859 
L 219.330082 62.543001 
L 220.415883 65.430088 
L 221.501684 64.807198 
L 222.587486 62.617427 
L 223.673287 63.29859 
L 224.759088 61.54104 
L 225.844889 59.319619 
L 226.93069 64.056534 
L 228.016491 62.172028 
L 229.102292 57.867969 
L 230.188094 63.638027 
L 231.273895 60.919782 
L 232.359696 55.234359 
L 233.445497 58.674067 
L 234.531298 59.162997 
L 235.617099 66.977726 
L 236.702901 61.731187 
L 237.788702 60.132412 
L 238.874503 60.280081 
L 239.960304 61.930055 
L 241.046105 53.568 
L 242.131906 60.616139 
L 243.217708 64.935808 
L 244.303509 58.051726 
L 245.38931 59.238782 
L 246.475111 64.430762 
L 247.560912 62.589015 
L 248.646713 65.778437 
L 249.732514 62.83611 
L 250.818316 63.839653 
L 251.904117 62.629355 
L 252.989918 61.597409 
L 254.075719 59.796538 
L 255.16152 58.577638 
L 256.247321 61.055377 
L 257.333123 56.810238 
L 258.418924 61.453585 
L 260.590526 63.151341 
L 261.676327 61.271516 
L 262.762128 57.841561 
L 263.847929 61.506387 
L 264.933731 58.112423 
L 266.019532 62.512158 
L 267.105333 59.862758 
L 268.191134 61.026105 
L 269.276935 62.760479 
L 270.362736 63.582827 
L 271.448538 64.992395 
L 272.534339 59.039438 
L 273.62014 64.378664 
L 274.705941 58.780416 
L 275.791742 63.109157 
L 276.877543 64.016341 
L 277.963344 63.531731 
L 279.049146 61.003942 
L 280.134947 64.002623 
L 281.220748 61.540319 
L 282.306549 62.42485 
L 283.39235 60.605992 
L 284.478151 63.932498 
L 285.563953 60.971374 
L 286.649754 62.681407 
L 287.735555 62.892918 
L 288.821356 65.838403 
L 289.907157 62.176853 
L 290.992958 172.634999 
L 292.07876 137.731889 
L 294.250362 97.337389 
L 295.336163 86.533209 
L 296.421964 77.364816 
L 297.507765 81.326526 
L 298.593566 82.270039 
L 299.679368 75.934147 
L 300.765169 76.184707 
L 301.85097 74.037725 
L 302.936771 76.050657 
L 304.022572 70.643275 
L 305.108373 76.651592 
L 306.194175 71.318527 
L 307.279976 79.766247 
L 308.365777 75.746272 
L 309.451578 68.313512 
L 310.537379 71.231936 
L 311.62318 69.965277 
L 312.708981 70.054795 
L 314.880584 72.344296 
L 315.966385 66.29131 
L 317.052186 66.830763 
L 318.137987 66.452325 
L 319.223788 67.710579 
L 320.30959 70.515698 
L 321.395391 69.248412 
L 322.481192 72.286313 
L 323.566993 68.350973 
L 324.652794 68.819798 
L 325.738595 67.832186 
L 326.824396 65.756856 
L 327.910198 65.225817 
L 328.995999 67.545353 
L 330.0818 62.88869 
L 331.167601 67.922785 
L 332.253402 57.120877 
L 333.339203 67.095909 
L 334.425005 64.377772 
L 335.510806 67.225611 
L 336.596607 60.26272 
L 337.682408 72.324406 
L 338.768209 60.70793 
L 339.85401 64.130476 
L 340.939811 68.811925 
L 342.025613 71.115114 
L 343.111414 63.389892 
L 344.197215 66.710218 
L 345.283016 64.177825 
L 346.368817 69.414426 
L 347.454618 67.200753 
L 348.54042 65.355684 
L 349.626221 64.642608 
L 350.712022 66.433834 
L 351.797823 64.17786 
L 352.883624 64.370845 
L 353.969425 66.621044 
L 355.055227 65.340203 
L 356.141028 66.081906 
L 357.226829 62.814254 
L 358.31263 63.256195 
L 359.398431 64.981774 
L 360.484232 65.992575 
L 361.570033 64.856912 
L 362.655835 69.593969 
L 363.741636 70.745778 
L 364.827437 64.068603 
L 365.913238 67.689005 
L 368.08484 58.499126 
L 369.170642 63.727398 
L 370.256443 61.329387 
L 371.342244 62.724164 
L 372.428045 64.798909 
L 373.513846 60.044708 
L 375.685448 68.767656 
L 376.77125 66.725556 
L 377.857051 60.478261 
L 378.942852 67.321838 
L 380.028653 61.317611 
L 381.114454 66.607969 
L 382.200255 62.639702 
L 383.286057 58.174587 
L 384.371858 61.568601 
L 385.457659 63.14673 
L 386.54346 70.558953 
L 387.629261 70.050766 
L 388.715062 61.586246 
L 389.800863 63.033089 
L 390.886665 60.085782 
L 391.972466 67.251231 
L 393.058267 65.269004 
L 394.144068 61.408511 
L 395.229869 63.203275 
L 396.31567 67.279012 
L 397.401472 64.442145 
L 398.487273 60.372837 
L 398.487273 60.372837 
" style="fill:none;stroke:#008000;stroke-dasharray:9.6,2.4,1.5,2.4;stroke-dashoffset:0;stroke-width:1.5;"/>
   </g>
   <g id="line2d_34">
    <path clip-path="url(#p0a67a93a64)" d="M 73.832727 103.862886 
L 74.918528 72.663837 
L 289.907157 72.663835 
L 290.992958 124.709121 
L 292.07876 103.473815 
L 293.164561 72.663835 
L 398.487273 72.663835 
L 398.487273 72.663835 
" style="fill:none;stroke:#ff0000;stroke-linecap:square;stroke-width:1.5;"/>
   </g>
   <g id="patch_3">
    <path d="M 57.6 307.584 
L 57.6 41.472 
" style="fill:none;stroke:#000000;stroke-linecap:square;stroke-linejoin:miter;stroke-width:0.8;"/>
   </g>
   <g id="patch_4">
    <path d="M 414.72 307.584 
L 414.72 41.472 
" style="fill:none;stroke:#000000;stroke-linecap:square;stroke-linejoin:miter;stroke-width:0.8;"/>
   </g>
   <g id="patch_5">
    <path d="M 57.6 307.584 
L 414.72 307.584 
" style="fill:none;stroke:#000000;stroke-linecap:square;stroke-linejoin:miter;stroke-width:0.8;"/>
   </g>
   <g id="patch_6">
    <path d="M 57.6 41.472 
L 414.72 41.472 
" style="fill:none;stroke:#000000;stroke-linecap:square;stroke-linejoin:miter;stroke-width:0.8;"/>
   </g>
   <g id="text_18">
    <!-- Population's average and best fitness -->
    <g transform="translate(123.529687 35.472)scale(0.12 -0.12)">
     <defs>
      <path d="M 1259 4147 
L 1259 2394 
L 2053 2394 
Q 2494 2394 2734 2622 
Q 2975 2850 2975 3272 
Q 2975 3691 2734 3919 
Q 2494 4147 2053 4147 
L 1259 4147 
z
M 628 4666 
L 2053 4666 
Q 2838 4666 3239 4311 
Q 3641 3956 3641 3272 
Q 3641 2581 3239 2228 
Q 2838 1875 2053 1875 
L 1259 1875 
L 1259 0 
L 628 0 
L 628 4666 
z
" id="DejaVuSans-50" transform="scale(0.015625)"/>
      <path d="M 1159 525 
L 1159 -1331 
L 581 -1331 
L 581 3500 
L 1159 3500 
L 1159 2969 
Q 1341 3281 1617 3432 
Q 1894 3584 2278 3584 
Q 2916 3584 3314 3078 
Q 3713 2572 3713 1747 
Q 3713 922 3314 415 
Q 2916 -91 2278 -91 
Q 1894 -91 1617 61 
Q 1341 213 1159 525 
z
M 3116 1747 
Q 3116 2381 2855 2742 
Q 2594 3103 2138 3103 
Q 1681 3103 1420 2742 
Q 1159 2381 1159 1747 
Q 1159 1113 1420 752 
Q 1681 391 2138 391 
Q 2594 391 2855 752 
Q 3116 1113 3116 1747 
z
" id="DejaVuSans-70" transform="scale(0.015625)"/>
      <path d="M 544 1381 
L 544 3500 
L 1119 3500 
L 1119 1403 
Q 1119 906 1312 657 
Q 1506 409 1894 409 
Q 2359 409 2629 706 
Q 2900 1003 2900 1516 
L 2900 3500 
L 3475 3500 
L 3475 0 
L 2900 0 
L 2900 538 
Q 2691 219 2414 64 
Q 2138 -91 1772 -91 
Q 1169 -91 856 284 
Q 544 659 544 1381 
z
M 1991 3584 
L 1991 3584 
z
" id="DejaVuSans-75" transform="scale(0.015625)"/>
      <path d="M 603 4863 
L 1178 4863 
L 1178 0 
L 603 0 
L 603 4863 
z
" id="DejaVuSans-6c" transform="scale(0.015625)"/>
      <path d="M 1147 4666 
L 1147 2931 
L 616 2931 
L 616 4666 
L 1147 4666 
z
" id="DejaVuSans-27" transform="scale(0.015625)"/>
      <path id="DejaVuSans-20" transform="scale(0.015625)"/>
      <path d="M 191 3500 
L 800 3500 
L 1894 563 
L 2988 3500 
L 3597 3500 
L 2284 0 
L 1503 0 
L 191 3500 
z
" id="DejaVuSans-76" transform="scale(0.015625)"/>
      <path d="M 2906 1791 
Q 2906 2416 2648 2759 
Q 2391 3103 1925 3103 
Q 1463 3103 1205 2759 
Q 947 2416 947 1791 
Q 947 1169 1205 825 
Q 1463 481 1925 481 
Q 2391 481 2648 825 
Q 2906 1169 2906 1791 
z
M 3481 434 
Q 3481 -459 3084 -895 
Q 2688 -1331 1869 -1331 
Q 1566 -1331 1297 -1286 
Q 1028 -1241 775 -1147 
L 775 -588 
Q 1028 -725 1275 -790 
Q 1522 -856 1778 -856 
Q 2344 -856 2625 -561 
Q 2906 -266 2906 331 
L 2906 616 
Q 2728 306 2450 153 
Q 2172 0 1784 0 
Q 1141 0 747 490 
Q 353 981 353 1791 
Q 353 2603 747 3093 
Q 1141 3584 1784 3584 
Q 2172 3584 2450 3431 
Q 2728 3278 2906 2969 
L 2906 3500 
L 3481 3500 
L 3481 434 
z
" id="DejaVuSans-67" transform="scale(0.015625)"/>
      <path d="M 2906 2969 
L 2906 4863 
L 3481 4863 
L 3481 0 
L 2906 0 
L 2906 525 
Q 2725 213 2448 61 
Q 2172 -91 1784 -91 
Q 1150 -91 751 415 
Q 353 922 353 1747 
Q 353 2572 751 3078 
Q 1150 3584 1784 3584 
Q 2172 3584 2448 3432 
Q 2725 3281 2906 2969 
z
M 947 1747 
Q 947 1113 1208 752 
Q 1469 391 1925 391 
Q 2381 391 2643 752 
Q 2906 1113 2906 1747 
Q 2906 2381 2643 2742 
Q 2381 3103 1925 3103 
Q 1469 3103 1208 2742 
Q 947 2381 947 1747 
z
" id="DejaVuSans-64" transform="scale(0.015625)"/>
      <path d="M 3116 1747 
Q 3116 2381 2855 2742 
Q 2594 3103 2138 3103 
Q 1681 3103 1420 2742 
Q 1159 2381 1159 1747 
Q 1159 1113 1420 752 
Q 1681 391 2138 391 
Q 2594 391 2855 752 
Q 3116 1113 3116 1747 
z
M 1159 2969 
Q 1341 3281 1617 3432 
Q 1894 3584 2278 3584 
Q 2916 3584 3314 3078 
Q 3713 2572 3713 1747 
Q 3713 922 3314 415 
Q 2916 -91 2278 -91 
Q 1894 -91 1617 61 
Q 1341 213 1159 525 
L 1159 0 
L 581 0 
L 581 4863 
L 1159 4863 
L 1159 2969 
z
" id="DejaVuSans-62" transform="scale(0.015625)"/>
      <path d="M 2375 4863 
L 2375 4384 
L 1825 4384 
Q 1516 4384 1395 4259 
Q 1275 4134 1275 3809 
L 1275 3500 
L 2222 3500 
L 2222 3053 
L 1275 3053 
L 1275 0 
L 697 0 
L 697 3053 
L 147 3053 
L 147 3500 
L 697 3500 
L 697 3744 
Q 697 4328 969 4595 
Q 1241 4863 1831 4863 
L 2375 4863 
z
" id="DejaVuSans-66" transform="scale(0.015625)"/>
     </defs>
     <use xlink:href="#DejaVuSans-50"/>
     <use x="56.677734" xlink:href="#DejaVuSans-6f"/>
     <use x="117.859375" xlink:href="#DejaVuSans-70"/>
     <use x="181.335938" xlink:href="#DejaVuSans-75"/>
     <use x="244.714844" xlink:href="#DejaVuSans-6c"/>
     <use x="272.498047" xlink:href="#DejaVuSans-61"/>
     <use x="333.777344" xlink:href="#DejaVuSans-74"/>
     <use x="372.986328" xlink:href="#DejaVuSans-69"/>
     <use x="400.769531" xlink:href="#DejaVuSans-6f"/>
     <use x="461.951172" xlink:href="#DejaVuSans-6e"/>
     <use x="525.330078" xlink:href="#DejaVuSans-27"/>
     <use x="552.820312" xlink:href="#DejaVuSans-73"/>
     <use x="604.919922" xlink:href="#DejaVuSans-20"/>
     <use x="636.707031" xlink:href="#DejaVuSans-61"/>
     <use x="697.986328" xlink:href="#DejaVuSans-76"/>
     <use x="757.166016" xlink:href="#DejaVuSans-65"/>
     <use x="818.689453" xlink:href="#DejaVuSans-72"/>
     <use x="859.802734" xlink:href="#DejaVuSans-61"/>
     <use x="921.082031" xlink:href="#DejaVuSans-67"/>
     <use x="984.558594" xlink:href="#DejaVuSans-65"/>
     <use x="1046.082031" xlink:href="#DejaVuSans-20"/>
     <use x="1077.869141" xlink:href="#DejaVuSans-61"/>
     <use x="1139.148438" xlink:href="#DejaVuSans-6e"/>
     <use x="1202.527344" xlink:href="#DejaVuSans-64"/>
     <use x="1266.003906" xlink:href="#DejaVuSans-20"/>
     <use x="1297.791016" xlink:href="#DejaVuSans-62"/>
     <use x="1361.267578" xlink:href="#DejaVuSans-65"/>
     <use x="1422.791016" xlink:href="#DejaVuSans-73"/>
     <use x="1474.890625" xlink:href="#DejaVuSans-74"/>
     <use x="1514.099609" xlink:href="#DejaVuSans-20"/>
     <use x="1545.886719" xlink:href="#DejaVuSans-66"/>
     <use x="1581.091797" xlink:href="#DejaVuSans-69"/>
     <use x="1608.875" xlink:href="#DejaVuSans-74"/>
     <use x="1648.083984" xlink:href="#DejaVuSans-6e"/>
     <use x="1711.462891" xlink:href="#DejaVuSans-65"/>
     <use x="1772.986328" xlink:href="#DejaVuSans-73"/>
     <use x="1825.085938" xlink:href="#DejaVuSans-73"/>
    </g>
   </g>
   <g id="legend_1">
    <g id="patch_7">
     <path d="M 334.779375 302.584 
L 407.72 302.584 
Q 409.72 302.584 409.72 300.584 
L 409.72 242.8715 
Q 409.72 240.8715 407.72 240.8715 
L 334.779375 240.8715 
Q 332.779375 240.8715 332.779375 242.8715 
L 332.779375 300.584 
Q 332.779375 302.584 334.779375 302.584 
z
" style="fill:#ffffff;opacity:0.8;stroke:#cccccc;stroke-linejoin:miter;"/>
    </g>
    <g id="line2d_35">
     <path d="M 336.779375 248.969937 
L 356.779375 248.969937 
" style="fill:none;stroke:#0000ff;stroke-linecap:square;stroke-width:1.5;"/>
    </g>
    <g id="line2d_36"/>
    <g id="text_19">
     <!-- average -->
     <g transform="translate(364.779375 252.469937)scale(0.1 -0.1)">
      <use xlink:href="#DejaVuSans-61"/>
      <use x="61.279297" xlink:href="#DejaVuSans-76"/>
      <use x="120.458984" xlink:href="#DejaVuSans-65"/>
      <use x="181.982422" xlink:href="#DejaVuSans-72"/>
      <use x="223.095703" xlink:href="#DejaVuSans-61"/>
      <use x="284.375" xlink:href="#DejaVuSans-67"/>
      <use x="347.851562" xlink:href="#DejaVuSans-65"/>
     </g>
    </g>
    <g id="line2d_37">
     <path d="M 336.779375 263.648062 
L 356.779375 263.648062 
" style="fill:none;stroke:#008000;stroke-dasharray:9.6,2.4,1.5,2.4;stroke-dashoffset:0;stroke-width:1.5;"/>
    </g>
    <g id="line2d_38"/>
    <g id="text_20">
     <!-- -1 sd -->
     <g transform="translate(364.779375 267.148062)scale(0.1 -0.1)">
      <defs>
       <path d="M 313 2009 
L 1997 2009 
L 1997 1497 
L 313 1497 
L 313 2009 
z
" id="DejaVuSans-2d" transform="scale(0.015625)"/>
      </defs>
      <use xlink:href="#DejaVuSans-2d"/>
      <use x="36.083984" xlink:href="#DejaVuSans-31"/>
      <use x="99.707031" xlink:href="#DejaVuSans-20"/>
      <use x="131.494141" xlink:href="#DejaVuSans-73"/>
      <use x="183.59375" xlink:href="#DejaVuSans-64"/>
     </g>
    </g>
    <g id="line2d_39">
     <path d="M 336.779375 278.326187 
L 356.779375 278.326187 
" style="fill:none;stroke:#008000;stroke-dasharray:9.6,2.4,1.5,2.4;stroke-dashoffset:0;stroke-width:1.5;"/>
    </g>
    <g id="line2d_40"/>
    <g id="text_21">
     <!-- +1 sd -->
     <g transform="translate(364.779375 281.826187)scale(0.1 -0.1)">
      <defs>
       <path d="M 2944 4013 
L 2944 2272 
L 4684 2272 
L 4684 1741 
L 2944 1741 
L 2944 0 
L 2419 0 
L 2419 1741 
L 678 1741 
L 678 2272 
L 2419 2272 
L 2419 4013 
L 2944 4013 
z
" id="DejaVuSans-2b" transform="scale(0.015625)"/>
      </defs>
      <use xlink:href="#DejaVuSans-2b"/>
      <use x="83.789062" xlink:href="#DejaVuSans-31"/>
      <use x="147.412109" xlink:href="#DejaVuSans-20"/>
      <use x="179.199219" xlink:href="#DejaVuSans-73"/>
      <use x="231.298828" xlink:href="#DejaVuSans-64"/>
     </g>
    </g>
    <g id="line2d_41">
     <path d="M 336.779375 293.004312 
L 356.779375 293.004312 
" style="fill:none;stroke:#ff0000;stroke-linecap:square;stroke-width:1.5;"/>
    </g>
    <g id="line2d_42"/>
    <g id="text_22">
     <!-- best -->
     <g transform="translate(364.779375 296.504312)scale(0.1 -0.1)">
      <use xlink:href="#DejaVuSans-62"/>
      <use x="63.476562" xlink:href="#DejaVuSans-65"/>
      <use x="125" xlink:href="#DejaVuSans-73"/>
      <use x="177.099609" xlink:href="#DejaVuSans-74"/>
     </g>
    </g>
   </g>
  </g>
 </g>
 <defs>
  <clipPath id="p0a67a93a64">
   <rect height="266.112" width="357.12" x="57.6" y="41.472"/>
  </clipPath>
 </defs>
</svg>
