<?xml version="1.0" encoding="UTF-8" standalone="no"?>
<!DOCTYPE svg PUBLIC "-//W3C//DTD SVG 1.1//EN"
 "http://www.w3.org/Graphics/SVG/1.1/DTD/svg11.dtd">
<!-- Generated by graphviz version 2.49.2 (20211016.1639)
 -->
<!-- Pages: 1 -->
<svg width="2953pt" height="137pt"
 viewBox="0.00 0.00 2953.00 136.95" xmlns="http://www.w3.org/2000/svg" xmlns:xlink="http://www.w3.org/1999/xlink">
<g id="graph0" class="graph" transform="scale(1 1) rotate(0) translate(4 132.95)">
<polygon fill="white" stroke="transparent" points="-4,4 -4,-132.95 2949,-132.95 2949,4 -4,4"/>
<!-- A -->
<g id="node1" class="node">
<title>A</title>
<polygon fill="lightgray" stroke="black" points="23,-128.95 0,-128.95 0,-110.95 23,-110.95 23,-128.95"/>
<text text-anchor="middle" x="11.5" y="-117.75" font-family="Times New Roman,serif" font-size="9.00">A</text>
</g>
<!-- A XOR B -->
<g id="node65" class="node">
<title>A XOR B</title>
<ellipse fill="lightblue" stroke="black" cx="1406.5" cy="-37.48" rx="37.45" ry="37.45"/>
<text text-anchor="middle" x="1406.5" y="-35.28" font-family="Times New Roman,serif" font-size="9.00">A XOR B</text>
</g>
<!-- A&#45;&gt;A XOR B -->
<g id="edge1" class="edge">
<title>A&#45;&gt;A XOR B</title>
<path fill="none" stroke="green" stroke-width="0.31" d="M23.14,-113.56C25.83,-112.52 28.72,-111.56 31.5,-110.95 292.65,-53.49 1147.49,-41.11 1358.89,-38.9"/>
<polygon fill="green" stroke="green" stroke-width="0.31" points="1359.08,-42.4 1369.04,-38.8 1359.01,-35.4 1359.08,-42.4"/>
</g>
<!-- B -->
<g id="node2" class="node">
<title>B</title>
<polygon fill="lightgray" stroke="black" points="64,-128.95 41,-128.95 41,-110.95 64,-110.95 64,-128.95"/>
<text text-anchor="middle" x="52.5" y="-117.75" font-family="Times New Roman,serif" font-size="9.00">B</text>
</g>
<!-- B&#45;&gt;A XOR B -->
<g id="edge2" class="edge">
<title>B&#45;&gt;A XOR B</title>
<path fill="none" stroke="green" stroke-width="0.26" d="M64.3,-113.73C67.25,-112.63 70.45,-111.6 73.5,-110.95 326.42,-57.27 1151.05,-42.11 1358.7,-39.1"/>
<polygon fill="green" stroke="green" stroke-width="0.26" points="1359.02,-42.6 1368.96,-38.95 1358.92,-35.6 1359.02,-42.6"/>
</g>
<!-- &#45;3 -->
<g id="node3" class="node">
<title>&#45;3</title>
<polygon fill="lightgray" stroke="black" points="106.5,-128.95 82.5,-128.95 82.5,-110.95 106.5,-110.95 106.5,-128.95"/>
<text text-anchor="middle" x="94.5" y="-117.75" font-family="Times New Roman,serif" font-size="9.00">&#45;3</text>
</g>
<!-- &#45;3&#45;&gt;A XOR B -->
<g id="edge3" class="edge">
<title>&#45;3&#45;&gt;A XOR B</title>
<path fill="none" stroke="green" stroke-width="0.12" d="M106.75,-113.57C109.57,-112.53 112.6,-111.57 115.5,-110.95 359.89,-58.86 1155.58,-42.56 1358.87,-39.19"/>
<polygon fill="green" stroke="green" stroke-width="0.12" points="1358.99,-42.69 1368.93,-39.03 1358.87,-35.69 1358.99,-42.69"/>
</g>
<!-- &#45;4 -->
<g id="node4" class="node">
<title>&#45;4</title>
<polygon fill="lightgray" stroke="black" points="148.5,-128.95 124.5,-128.95 124.5,-110.95 148.5,-110.95 148.5,-128.95"/>
<text text-anchor="middle" x="136.5" y="-117.75" font-family="Times New Roman,serif" font-size="9.00">&#45;4</text>
</g>
<!-- &#45;4&#45;&gt;A XOR B -->
<g id="edge4" class="edge">
<title>&#45;4&#45;&gt;A XOR B</title>
<path fill="none" stroke="red" stroke-width="0.29" d="M148.75,-113.57C151.57,-112.53 154.6,-111.57 157.5,-110.95 393.28,-60.46 1159.58,-43.03 1358.81,-39.3"/>
<polygon fill="red" stroke="red" stroke-width="0.29" points="1359.02,-42.8 1368.95,-39.11 1358.89,-35.8 1359.02,-42.8"/>
</g>
<!-- &#45;5 -->
<g id="node5" class="node">
<title>&#45;5</title>
<polygon fill="lightgray" stroke="black" points="2897.5,-128.95 2873.5,-128.95 2873.5,-110.95 2897.5,-110.95 2897.5,-128.95"/>
<text text-anchor="middle" x="2885.5" y="-117.75" font-family="Times New Roman,serif" font-size="9.00">&#45;5</text>
</g>
<!-- &#45;6 -->
<g id="node6" class="node">
<title>&#45;6</title>
<polygon fill="lightgray" stroke="black" points="190.5,-128.95 166.5,-128.95 166.5,-110.95 190.5,-110.95 190.5,-128.95"/>
<text text-anchor="middle" x="178.5" y="-117.75" font-family="Times New Roman,serif" font-size="9.00">&#45;6</text>
</g>
<!-- &#45;6&#45;&gt;A XOR B -->
<g id="edge5" class="edge">
<title>&#45;6&#45;&gt;A XOR B</title>
<path fill="none" stroke="green" stroke-width="0.38" d="M190.75,-113.58C193.57,-112.54 196.6,-111.58 199.5,-110.95 426.71,-62.05 1163.87,-43.52 1358.83,-39.41"/>
<polygon fill="green" stroke="green" stroke-width="0.38" points="1359.11,-42.9 1369.04,-39.2 1358.97,-35.91 1359.11,-42.9"/>
</g>
<!-- &#45;7 -->
<g id="node7" class="node">
<title>&#45;7</title>
<polygon fill="lightgray" stroke="black" points="232.5,-128.95 208.5,-128.95 208.5,-110.95 232.5,-110.95 232.5,-128.95"/>
<text text-anchor="middle" x="220.5" y="-117.75" font-family="Times New Roman,serif" font-size="9.00">&#45;7</text>
</g>
<!-- &#45;7&#45;&gt;A XOR B -->
<g id="edge6" class="edge">
<title>&#45;7&#45;&gt;A XOR B</title>
<path fill="none" stroke="green" stroke-width="0.6" d="M232.75,-113.58C235.57,-112.54 238.6,-111.58 241.5,-110.95 460.07,-63.67 1167.66,-44.05 1358.63,-39.53"/>
<polygon fill="green" stroke="green" stroke-width="0.6" points="1358.98,-43.03 1368.9,-39.29 1358.82,-36.03 1358.98,-43.03"/>
</g>
<!-- &#45;8 -->
<g id="node8" class="node">
<title>&#45;8</title>
<polygon fill="lightgray" stroke="black" points="274.5,-128.95 250.5,-128.95 250.5,-110.95 274.5,-110.95 274.5,-128.95"/>
<text text-anchor="middle" x="262.5" y="-117.75" font-family="Times New Roman,serif" font-size="9.00">&#45;8</text>
</g>
<!-- &#45;8&#45;&gt;A XOR B -->
<g id="edge7" class="edge">
<title>&#45;8&#45;&gt;A XOR B</title>
<path fill="none" stroke="green" stroke-width="0.47" d="M274.75,-113.58C277.57,-112.54 280.6,-111.58 283.5,-110.95 493.58,-65.25 1172.48,-44.56 1358.81,-39.66"/>
<polygon fill="green" stroke="green" stroke-width="0.47" points="1358.94,-43.15 1368.84,-39.4 1358.75,-36.16 1358.94,-43.15"/>
</g>
<!-- &#45;9 -->
<g id="node9" class="node">
<title>&#45;9</title>
<polygon fill="lightgray" stroke="black" points="316.5,-128.95 292.5,-128.95 292.5,-110.95 316.5,-110.95 316.5,-128.95"/>
<text text-anchor="middle" x="304.5" y="-117.75" font-family="Times New Roman,serif" font-size="9.00">&#45;9</text>
</g>
<!-- &#45;9&#45;&gt;A XOR B -->
<g id="edge8" class="edge">
<title>&#45;9&#45;&gt;A XOR B</title>
<path fill="none" stroke="green" stroke-width="0.13" d="M316.75,-113.59C319.58,-112.55 322.6,-111.59 325.5,-110.95 527.04,-66.84 1176.94,-45.11 1358.81,-39.79"/>
<polygon fill="green" stroke="green" stroke-width="0.13" points="1358.97,-43.29 1368.86,-39.5 1358.77,-36.29 1358.97,-43.29"/>
</g>
<!-- &#45;10 -->
<g id="node10" class="node">
<title>&#45;10</title>
<polygon fill="lightgray" stroke="black" points="364,-128.95 335,-128.95 335,-110.95 364,-110.95 364,-128.95"/>
<text text-anchor="middle" x="349.5" y="-117.75" font-family="Times New Roman,serif" font-size="9.00">&#45;10</text>
</g>
<!-- &#45;10&#45;&gt;A XOR B -->
<g id="edge9" class="edge">
<title>&#45;10&#45;&gt;A XOR B</title>
<path fill="none" stroke="red" stroke-width="0.53" d="M364.43,-113.12C367.09,-112.27 369.85,-111.5 372.5,-110.95 565.11,-71.44 1182.3,-46.57 1358.89,-40.14"/>
<polygon fill="red" stroke="red" stroke-width="0.53" points="1359.04,-43.64 1368.91,-39.78 1358.79,-36.64 1359.04,-43.64"/>
</g>
<!-- &#45;11 -->
<g id="node11" class="node">
<title>&#45;11</title>
<polygon fill="lightgray" stroke="black" points="411,-128.95 382,-128.95 382,-110.95 411,-110.95 411,-128.95"/>
<text text-anchor="middle" x="396.5" y="-117.75" font-family="Times New Roman,serif" font-size="9.00">&#45;11</text>
</g>
<!-- &#45;11&#45;&gt;A XOR B -->
<g id="edge10" class="edge">
<title>&#45;11&#45;&gt;A XOR B</title>
<path fill="none" stroke="green" stroke-width="0.2" d="M411.44,-113.13C414.09,-112.28 416.85,-111.5 419.5,-110.95 602.53,-73.08 1187.36,-47.23 1358.82,-40.33"/>
<polygon fill="green" stroke="green" stroke-width="0.2" points="1359.19,-43.81 1369.04,-39.92 1358.91,-36.82 1359.19,-43.81"/>
</g>
<!-- &#45;12 -->
<g id="node12" class="node">
<title>&#45;12</title>
<polygon fill="lightgray" stroke="black" points="458,-128.95 429,-128.95 429,-110.95 458,-110.95 458,-128.95"/>
<text text-anchor="middle" x="443.5" y="-117.75" font-family="Times New Roman,serif" font-size="9.00">&#45;12</text>
</g>
<!-- &#45;12&#45;&gt;A XOR B -->
<g id="edge11" class="edge">
<title>&#45;12&#45;&gt;A XOR B</title>
<path fill="none" stroke="green" stroke-width="0.33" d="M458.44,-113.14C461.09,-112.28 463.85,-111.51 466.5,-110.95 802.62,-40.77 1219.1,-36.94 1358.52,-37.85"/>
<polygon fill="green" stroke="green" stroke-width="0.33" points="1358.82,-41.35 1368.84,-37.93 1358.87,-34.35 1358.82,-41.35"/>
</g>
<!-- &#45;13 -->
<g id="node13" class="node">
<title>&#45;13</title>
<polygon fill="lightgray" stroke="black" points="505,-128.95 476,-128.95 476,-110.95 505,-110.95 505,-128.95"/>
<text text-anchor="middle" x="490.5" y="-117.75" font-family="Times New Roman,serif" font-size="9.00">&#45;13</text>
</g>
<!-- &#45;13&#45;&gt;A XOR B -->
<g id="edge12" class="edge">
<title>&#45;13&#45;&gt;A XOR B</title>
<path fill="none" stroke="green" stroke-width="0.1" d="M505.44,-113.15C508.09,-112.29 510.85,-111.51 513.5,-110.95 830.98,-43.99 1224,-38.04 1358.65,-38.12"/>
<polygon fill="green" stroke="green" stroke-width="0.1" points="1359.01,-41.62 1369.01,-38.14 1359.02,-34.62 1359.01,-41.62"/>
</g>
<!-- &#45;14 -->
<g id="node14" class="node">
<title>&#45;14</title>
<polygon fill="lightgray" stroke="black" points="552,-128.95 523,-128.95 523,-110.95 552,-110.95 552,-128.95"/>
<text text-anchor="middle" x="537.5" y="-117.75" font-family="Times New Roman,serif" font-size="9.00">&#45;14</text>
</g>
<!-- &#45;14&#45;&gt;A XOR B -->
<g id="edge13" class="edge">
<title>&#45;14&#45;&gt;A XOR B</title>
<path fill="none" stroke="red" stroke-width="0.11" d="M552.44,-113.16C555.09,-112.3 557.85,-111.52 560.5,-110.95 859.19,-47.26 1228.51,-39.19 1358.51,-38.43"/>
<polygon fill="red" stroke="red" stroke-width="0.11" points="1358.92,-41.93 1368.9,-38.38 1358.89,-34.93 1358.92,-41.93"/>
</g>
<!-- &#45;15 -->
<g id="node15" class="node">
<title>&#45;15</title>
<polygon fill="lightgray" stroke="black" points="599,-128.95 570,-128.95 570,-110.95 599,-110.95 599,-128.95"/>
<text text-anchor="middle" x="584.5" y="-117.75" font-family="Times New Roman,serif" font-size="9.00">&#45;15</text>
</g>
<!-- &#45;15&#45;&gt;A XOR B -->
<g id="edge14" class="edge">
<title>&#45;15&#45;&gt;A XOR B</title>
<path fill="none" stroke="green" stroke-width="0.16" d="M599.44,-113.17C602.1,-112.31 604.86,-111.52 607.5,-110.95 887.63,-50.48 1233.6,-40.4 1358.62,-38.77"/>
<polygon fill="green" stroke="green" stroke-width="0.16" points="1359.02,-42.26 1368.98,-38.65 1358.94,-35.26 1359.02,-42.26"/>
</g>
<!-- &#45;16 -->
<g id="node16" class="node">
<title>&#45;16</title>
<polygon fill="lightgray" stroke="black" points="646,-128.95 617,-128.95 617,-110.95 646,-110.95 646,-128.95"/>
<text text-anchor="middle" x="631.5" y="-117.75" font-family="Times New Roman,serif" font-size="9.00">&#45;16</text>
</g>
<!-- &#45;16&#45;&gt;A XOR B -->
<g id="edge15" class="edge">
<title>&#45;16&#45;&gt;A XOR B</title>
<path fill="none" stroke="green" stroke-width="0.44" d="M646.45,-113.18C649.1,-112.32 651.86,-111.53 654.5,-110.95 916,-53.74 1238.5,-41.69 1358.54,-39.15"/>
<polygon fill="green" stroke="green" stroke-width="0.44" points="1358.92,-42.64 1368.84,-38.95 1358.78,-35.65 1358.92,-42.64"/>
</g>
<!-- &#45;17 -->
<g id="node17" class="node">
<title>&#45;17</title>
<polygon fill="lightgray" stroke="black" points="693,-128.95 664,-128.95 664,-110.95 693,-110.95 693,-128.95"/>
<text text-anchor="middle" x="678.5" y="-117.75" font-family="Times New Roman,serif" font-size="9.00">&#45;17</text>
</g>
<!-- &#45;17&#45;&gt;A XOR B -->
<g id="edge16" class="edge">
<title>&#45;17&#45;&gt;A XOR B</title>
<path fill="none" stroke="green" stroke-width="0.31" d="M693.45,-113.19C696.1,-112.33 698.86,-111.54 701.5,-110.95 944.65,-56.94 1244.08,-43.03 1358.75,-39.57"/>
<polygon fill="green" stroke="green" stroke-width="0.31" points="1359.05,-43.07 1368.94,-39.28 1358.84,-36.07 1359.05,-43.07"/>
</g>
<!-- &#45;18 -->
<g id="node18" class="node">
<title>&#45;18</title>
<polygon fill="lightgray" stroke="black" points="740,-128.95 711,-128.95 711,-110.95 740,-110.95 740,-128.95"/>
<text text-anchor="middle" x="725.5" y="-117.75" font-family="Times New Roman,serif" font-size="9.00">&#45;18</text>
</g>
<!-- &#45;18&#45;&gt;A XOR B -->
<g id="edge17" class="edge">
<title>&#45;18&#45;&gt;A XOR B</title>
<path fill="none" stroke="green" stroke-width="0.55" d="M740.45,-113.21C743.1,-112.35 745.86,-111.55 748.5,-110.95 973.3,-60.16 1249.66,-44.47 1358.87,-40.06"/>
<polygon fill="green" stroke="green" stroke-width="0.55" points="1359.06,-43.55 1368.91,-39.66 1358.78,-36.56 1359.06,-43.55"/>
</g>
<!-- &#45;19 -->
<g id="node19" class="node">
<title>&#45;19</title>
<polygon fill="lightgray" stroke="black" points="787,-128.95 758,-128.95 758,-110.95 787,-110.95 787,-128.95"/>
<text text-anchor="middle" x="772.5" y="-117.75" font-family="Times New Roman,serif" font-size="9.00">&#45;19</text>
</g>
<!-- &#45;19&#45;&gt;A XOR B -->
<g id="edge18" class="edge">
<title>&#45;19&#45;&gt;A XOR B</title>
<path fill="none" stroke="green" stroke-width="0.33" d="M787.46,-113.23C790.11,-112.36 792.86,-111.56 795.5,-110.95 1001.81,-63.43 1254.89,-46.05 1358.67,-40.62"/>
<polygon fill="green" stroke="green" stroke-width="0.33" points="1359.01,-44.11 1368.82,-40.11 1358.66,-37.12 1359.01,-44.11"/>
</g>
<!-- &#45;20 -->
<g id="node20" class="node">
<title>&#45;20</title>
<polygon fill="lightgray" stroke="black" points="834,-128.95 805,-128.95 805,-110.95 834,-110.95 834,-128.95"/>
<text text-anchor="middle" x="819.5" y="-117.75" font-family="Times New Roman,serif" font-size="9.00">&#45;20</text>
</g>
<!-- &#45;20&#45;&gt;A XOR B -->
<g id="edge19" class="edge">
<title>&#45;20&#45;&gt;A XOR B</title>
<path fill="none" stroke="green" stroke-width="0.23" d="M834.46,-113.25C837.11,-112.38 839.87,-111.57 842.5,-110.95 1030.71,-66.63 1261.07,-47.71 1358.91,-41.26"/>
<polygon fill="green" stroke="green" stroke-width="0.23" points="1359.32,-44.74 1369.07,-40.6 1358.87,-37.75 1359.32,-44.74"/>
</g>
<!-- &#45;21 -->
<g id="node21" class="node">
<title>&#45;21</title>
<polygon fill="lightgray" stroke="black" points="881,-128.95 852,-128.95 852,-110.95 881,-110.95 881,-128.95"/>
<text text-anchor="middle" x="866.5" y="-117.75" font-family="Times New Roman,serif" font-size="9.00">&#45;21</text>
</g>
<!-- &#45;21&#45;&gt;A XOR B -->
<g id="edge20" class="edge">
<title>&#45;21&#45;&gt;A XOR B</title>
<path fill="none" stroke="green" stroke-width="0.32" d="M881.47,-113.28C884.12,-112.41 886.87,-111.59 889.5,-110.95 1059.59,-69.87 1267.17,-49.53 1358.96,-42.02"/>
<polygon fill="green" stroke="green" stroke-width="0.32" points="1359.36,-45.49 1369.04,-41.2 1358.8,-38.52 1359.36,-45.49"/>
</g>
<!-- &#45;22 -->
<g id="node22" class="node">
<title>&#45;22</title>
<polygon fill="lightgray" stroke="black" points="928,-128.95 899,-128.95 899,-110.95 928,-110.95 928,-128.95"/>
<text text-anchor="middle" x="913.5" y="-117.75" font-family="Times New Roman,serif" font-size="9.00">&#45;22</text>
</g>
<!-- &#45;22&#45;&gt;A XOR B -->
<g id="edge21" class="edge">
<title>&#45;22&#45;&gt;A XOR B</title>
<path fill="none" stroke="red" stroke-width="0.23" d="M928.48,-113.31C931.12,-112.43 933.87,-111.61 936.5,-110.95 1088.59,-73.11 1273.56,-51.54 1359.02,-42.91"/>
<polygon fill="red" stroke="red" stroke-width="0.23" points="1359.58,-46.38 1369.18,-41.9 1358.88,-39.41 1359.58,-46.38"/>
</g>
<!-- &#45;23 -->
<g id="node23" class="node">
<title>&#45;23</title>
<polygon fill="lightgray" stroke="black" points="975,-128.95 946,-128.95 946,-110.95 975,-110.95 975,-128.95"/>
<text text-anchor="middle" x="960.5" y="-117.75" font-family="Times New Roman,serif" font-size="9.00">&#45;23</text>
</g>
<!-- &#45;23&#45;&gt;A XOR B -->
<g id="edge22" class="edge">
<title>&#45;23&#45;&gt;A XOR B</title>
<path fill="none" stroke="red" stroke-width="0.31" d="M975.48,-113.34C978.13,-112.47 980.88,-111.63 983.5,-110.95 1117.8,-76.34 1280.44,-53.75 1359.2,-43.99"/>
<polygon fill="red" stroke="red" stroke-width="0.31" points="1359.79,-47.44 1369.29,-42.75 1358.94,-40.5 1359.79,-47.44"/>
</g>
<!-- &#45;24 -->
<g id="node24" class="node">
<title>&#45;24</title>
<polygon fill="lightgray" stroke="black" points="1022,-128.95 993,-128.95 993,-110.95 1022,-110.95 1022,-128.95"/>
<text text-anchor="middle" x="1007.5" y="-117.75" font-family="Times New Roman,serif" font-size="9.00">&#45;24</text>
</g>
<!-- &#45;24&#45;&gt;A XOR B -->
<g id="edge23" class="edge">
<title>&#45;24&#45;&gt;A XOR B</title>
<path fill="none" stroke="red" stroke-width="0.18" d="M1022,-113.55C1024.8,-112.61 1027.72,-111.7 1030.5,-110.95 1147.22,-79.58 1287.8,-56.21 1359.47,-45.31"/>
<polygon fill="red" stroke="red" stroke-width="0.18" points="1360.17,-48.74 1369.54,-43.79 1359.13,-41.82 1360.17,-48.74"/>
</g>
<!-- &#45;25 -->
<g id="node25" class="node">
<title>&#45;25</title>
<polygon fill="lightgray" stroke="black" points="1069,-128.95 1040,-128.95 1040,-110.95 1069,-110.95 1069,-128.95"/>
<text text-anchor="middle" x="1054.5" y="-117.75" font-family="Times New Roman,serif" font-size="9.00">&#45;25</text>
</g>
<!-- &#45;25&#45;&gt;A XOR B -->
<g id="edge24" class="edge">
<title>&#45;25&#45;&gt;A XOR B</title>
<path fill="none" stroke="red" stroke-width="0.25" d="M1069.02,-113.61C1071.81,-112.67 1074.73,-111.74 1077.5,-110.95 1176.66,-82.89 1295.17,-59.13 1359.42,-47.04"/>
<polygon fill="red" stroke="red" stroke-width="0.25" points="1360.45,-50.4 1369.64,-45.13 1359.16,-43.52 1360.45,-50.4"/>
</g>
<!-- &#45;26 -->
<g id="node26" class="node">
<title>&#45;26</title>
<polygon fill="lightgray" stroke="black" points="1116,-128.95 1087,-128.95 1087,-110.95 1116,-110.95 1116,-128.95"/>
<text text-anchor="middle" x="1101.5" y="-117.75" font-family="Times New Roman,serif" font-size="9.00">&#45;26</text>
</g>
<!-- &#45;26&#45;&gt;A XOR B -->
<g id="edge25" class="edge">
<title>&#45;26&#45;&gt;A XOR B</title>
<path fill="none" stroke="green" stroke-width="0.48" d="M1116.04,-113.69C1118.83,-112.74 1121.75,-111.78 1124.5,-110.95 1206.73,-86.13 1304.04,-62.33 1360.19,-49.13"/>
<polygon fill="green" stroke="green" stroke-width="0.48" points="1361.24,-52.48 1370.18,-46.79 1359.64,-45.66 1361.24,-52.48"/>
</g>
<!-- &#45;27 -->
<g id="node27" class="node">
<title>&#45;27</title>
<polygon fill="lightgray" stroke="black" points="1163,-128.95 1134,-128.95 1134,-110.95 1163,-110.95 1163,-128.95"/>
<text text-anchor="middle" x="1148.5" y="-117.75" font-family="Times New Roman,serif" font-size="9.00">&#45;27</text>
</g>
<!-- &#45;27&#45;&gt;A XOR B -->
<g id="edge26" class="edge">
<title>&#45;27&#45;&gt;A XOR B</title>
<path fill="none" stroke="green" stroke-width="0.21" d="M1163.07,-113.8C1165.87,-112.83 1168.77,-111.85 1171.5,-110.95 1237.02,-89.46 1313.41,-66.24 1360.87,-52.03"/>
<polygon fill="green" stroke="green" stroke-width="0.21" points="1361.96,-55.35 1370.54,-49.13 1359.96,-48.64 1361.96,-55.35"/>
</g>
<!-- &#45;28 -->
<g id="node28" class="node">
<title>&#45;28</title>
<polygon fill="lightgray" stroke="black" points="1210,-128.95 1181,-128.95 1181,-110.95 1210,-110.95 1210,-128.95"/>
<text text-anchor="middle" x="1195.5" y="-117.75" font-family="Times New Roman,serif" font-size="9.00">&#45;28</text>
</g>
<!-- &#45;28&#45;&gt;A XOR B -->
<g id="edge27" class="edge">
<title>&#45;28&#45;&gt;A XOR B</title>
<path fill="none" stroke="green" stroke-width="0.18" d="M1210,-113.42C1240.93,-101.63 1314.41,-73.6 1362.23,-55.36"/>
<polygon fill="green" stroke="green" stroke-width="0.18" points="1363.63,-58.57 1371.73,-51.74 1361.14,-52.03 1363.63,-58.57"/>
</g>
<!-- &#45;29 -->
<g id="node29" class="node">
<title>&#45;29</title>
<polygon fill="lightgray" stroke="black" points="1257,-128.95 1228,-128.95 1228,-110.95 1257,-110.95 1257,-128.95"/>
<text text-anchor="middle" x="1242.5" y="-117.75" font-family="Times New Roman,serif" font-size="9.00">&#45;29</text>
</g>
<!-- &#45;29&#45;&gt;A XOR B -->
<g id="edge28" class="edge">
<title>&#45;29&#45;&gt;A XOR B</title>
<path fill="none" stroke="red" stroke-width="0.34" d="M1257.05,-111.81C1280.8,-100.16 1328.76,-76.62 1363.97,-59.35"/>
<polygon fill="red" stroke="red" stroke-width="0.34" points="1365.64,-62.42 1373.08,-54.88 1362.56,-56.14 1365.64,-62.42"/>
</g>
<!-- &#45;30 -->
<g id="node30" class="node">
<title>&#45;30</title>
<polygon fill="lightgray" stroke="black" points="1304,-128.95 1275,-128.95 1275,-110.95 1304,-110.95 1304,-128.95"/>
<text text-anchor="middle" x="1289.5" y="-117.75" font-family="Times New Roman,serif" font-size="9.00">&#45;30</text>
</g>
<!-- &#45;30&#45;&gt;A XOR B -->
<g id="edge29" class="edge">
<title>&#45;30&#45;&gt;A XOR B</title>
<path fill="none" stroke="green" stroke-width="0.34" d="M1301.15,-110.94C1316.49,-100.39 1344.23,-81.31 1367.4,-65.37"/>
<polygon fill="green" stroke="green" stroke-width="0.34" points="1369.44,-68.21 1375.7,-59.66 1365.47,-62.45 1369.44,-68.21"/>
</g>
<!-- &#45;31 -->
<g id="node31" class="node">
<title>&#45;31</title>
<polygon fill="lightgray" stroke="black" points="1351,-128.95 1322,-128.95 1322,-110.95 1351,-110.95 1351,-128.95"/>
<text text-anchor="middle" x="1336.5" y="-117.75" font-family="Times New Roman,serif" font-size="9.00">&#45;31</text>
</g>
<!-- &#45;31&#45;&gt;A XOR B -->
<g id="edge30" class="edge">
<title>&#45;31&#45;&gt;A XOR B</title>
<path fill="none" stroke="red" stroke-width="0.18" d="M1343.47,-110.94C1350.98,-102.3 1363.48,-87.94 1375.37,-74.27"/>
<polygon fill="red" stroke="red" stroke-width="0.18" points="1378.33,-76.19 1382.26,-66.35 1373.05,-71.6 1378.33,-76.19"/>
</g>
<!-- &#45;32 -->
<g id="node32" class="node">
<title>&#45;32</title>
<polygon fill="lightgray" stroke="black" points="1398,-128.95 1369,-128.95 1369,-110.95 1398,-110.95 1398,-128.95"/>
<text text-anchor="middle" x="1383.5" y="-117.75" font-family="Times New Roman,serif" font-size="9.00">&#45;32</text>
</g>
<!-- &#45;32&#45;&gt;A XOR B -->
<g id="edge31" class="edge">
<title>&#45;32&#45;&gt;A XOR B</title>
<path fill="none" stroke="red" stroke-width="0.12" d="M1385.79,-110.94C1387.7,-104.25 1390.6,-94.11 1393.62,-83.53"/>
<polygon fill="red" stroke="red" stroke-width="0.12" points="1397.03,-84.34 1396.41,-73.77 1390.3,-82.42 1397.03,-84.34"/>
</g>
<!-- &#45;33 -->
<g id="node33" class="node">
<title>&#45;33</title>
<polygon fill="lightgray" stroke="black" points="1445,-128.95 1416,-128.95 1416,-110.95 1445,-110.95 1445,-128.95"/>
<text text-anchor="middle" x="1430.5" y="-117.75" font-family="Times New Roman,serif" font-size="9.00">&#45;33</text>
</g>
<!-- &#45;33&#45;&gt;A XOR B -->
<g id="edge32" class="edge">
<title>&#45;33&#45;&gt;A XOR B</title>
<path fill="none" stroke="red" stroke-width="0.59" d="M1428.11,-110.94C1426.11,-104.25 1423.09,-94.11 1419.94,-83.53"/>
<polygon fill="red" stroke="red" stroke-width="0.59" points="1423.24,-82.35 1417.02,-73.77 1416.53,-84.35 1423.24,-82.35"/>
</g>
<!-- &#45;34 -->
<g id="node34" class="node">
<title>&#45;34</title>
<polygon fill="lightgray" stroke="black" points="1492,-128.95 1463,-128.95 1463,-110.95 1492,-110.95 1492,-128.95"/>
<text text-anchor="middle" x="1477.5" y="-117.75" font-family="Times New Roman,serif" font-size="9.00">&#45;34</text>
</g>
<!-- &#45;34&#45;&gt;A XOR B -->
<g id="edge33" class="edge">
<title>&#45;34&#45;&gt;A XOR B</title>
<path fill="none" stroke="red" stroke-width="0.14" d="M1470.43,-110.94C1462.74,-102.22 1449.9,-87.67 1437.74,-73.89"/>
<polygon fill="red" stroke="red" stroke-width="0.14" points="1440.33,-71.53 1431.09,-66.35 1435.08,-76.16 1440.33,-71.53"/>
</g>
<!-- &#45;35 -->
<g id="node35" class="node">
<title>&#45;35</title>
<polygon fill="lightgray" stroke="black" points="1539,-128.95 1510,-128.95 1510,-110.95 1539,-110.95 1539,-128.95"/>
<text text-anchor="middle" x="1524.5" y="-117.75" font-family="Times New Roman,serif" font-size="9.00">&#45;35</text>
</g>
<!-- &#45;35&#45;&gt;A XOR B -->
<g id="edge34" class="edge">
<title>&#45;35&#45;&gt;A XOR B</title>
<path fill="none" stroke="green" stroke-width="0.35" d="M1512.75,-110.94C1497.18,-100.32 1468.92,-81.05 1445.46,-65.05"/>
<polygon fill="green" stroke="green" stroke-width="0.35" points="1447.3,-62.07 1437.07,-59.33 1443.36,-67.85 1447.3,-62.07"/>
</g>
<!-- &#45;36 -->
<g id="node36" class="node">
<title>&#45;36</title>
<polygon fill="lightgray" stroke="black" points="1586,-128.95 1557,-128.95 1557,-110.95 1586,-110.95 1586,-128.95"/>
<text text-anchor="middle" x="1571.5" y="-117.75" font-family="Times New Roman,serif" font-size="9.00">&#45;36</text>
</g>
<!-- &#45;36&#45;&gt;A XOR B -->
<g id="edge35" class="edge">
<title>&#45;36&#45;&gt;A XOR B</title>
<path fill="none" stroke="red" stroke-width="0.27" d="M1556.86,-111.81C1532.89,-100.12 1484.42,-76.48 1448.96,-59.19"/>
<polygon fill="red" stroke="red" stroke-width="0.27" points="1450.32,-55.96 1439.8,-54.72 1447.25,-62.25 1450.32,-55.96"/>
</g>
<!-- &#45;37 -->
<g id="node37" class="node">
<title>&#45;37</title>
<polygon fill="lightgray" stroke="black" points="1633,-128.95 1604,-128.95 1604,-110.95 1633,-110.95 1633,-128.95"/>
<text text-anchor="middle" x="1618.5" y="-117.75" font-family="Times New Roman,serif" font-size="9.00">&#45;37</text>
</g>
<!-- &#45;37&#45;&gt;A XOR B -->
<g id="edge36" class="edge">
<title>&#45;37&#45;&gt;A XOR B</title>
<path fill="none" stroke="red" stroke-width="0.28" d="M1603.93,-113.42C1572.86,-101.63 1499.02,-73.6 1450.98,-55.36"/>
<polygon fill="red" stroke="red" stroke-width="0.28" points="1452.03,-52.02 1441.44,-51.74 1449.55,-58.56 1452.03,-52.02"/>
</g>
<!-- &#45;38 -->
<g id="node38" class="node">
<title>&#45;38</title>
<polygon fill="lightgray" stroke="black" points="1680,-128.95 1651,-128.95 1651,-110.95 1680,-110.95 1680,-128.95"/>
<text text-anchor="middle" x="1665.5" y="-117.75" font-family="Times New Roman,serif" font-size="9.00">&#45;38</text>
</g>
<!-- &#45;38&#45;&gt;A XOR B -->
<g id="edge37" class="edge">
<title>&#45;38&#45;&gt;A XOR B</title>
<path fill="none" stroke="green" stroke-width="0.24" d="M1650.93,-113.79C1648.14,-112.83 1645.23,-111.85 1642.5,-110.95 1576.52,-89.36 1499.55,-66.07 1451.92,-51.88"/>
<polygon fill="green" stroke="green" stroke-width="0.24" points="1452.8,-48.49 1442.21,-49 1450.8,-55.2 1452.8,-48.49"/>
</g>
<!-- &#45;39 -->
<g id="node39" class="node">
<title>&#45;39</title>
<polygon fill="lightgray" stroke="black" points="1727,-128.95 1698,-128.95 1698,-110.95 1727,-110.95 1727,-128.95"/>
<text text-anchor="middle" x="1712.5" y="-117.75" font-family="Times New Roman,serif" font-size="9.00">&#45;39</text>
</g>
<!-- &#45;39&#45;&gt;A XOR B -->
<g id="edge38" class="edge">
<title>&#45;39&#45;&gt;A XOR B</title>
<path fill="none" stroke="green" stroke-width="0.43" d="M1697.96,-113.69C1695.17,-112.74 1692.25,-111.78 1689.5,-110.95 1606.98,-86.08 1509.33,-62.3 1452.98,-49.11"/>
<polygon fill="green" stroke="green" stroke-width="0.43" points="1453.49,-45.64 1442.95,-46.78 1451.9,-52.46 1453.49,-45.64"/>
</g>
<!-- &#45;40 -->
<g id="node40" class="node">
<title>&#45;40</title>
<polygon fill="lightgray" stroke="black" points="1774,-128.95 1745,-128.95 1745,-110.95 1774,-110.95 1774,-128.95"/>
<text text-anchor="middle" x="1759.5" y="-117.75" font-family="Times New Roman,serif" font-size="9.00">&#45;40</text>
</g>
<!-- &#45;40&#45;&gt;A XOR B -->
<g id="edge39" class="edge">
<title>&#45;40&#45;&gt;A XOR B</title>
<path fill="none" stroke="red" stroke-width="0.33" d="M1744.98,-113.61C1742.19,-112.67 1739.27,-111.74 1736.5,-110.95 1636.84,-82.79 1517.68,-59 1453.33,-46.95"/>
<polygon fill="red" stroke="red" stroke-width="0.33" points="1453.95,-43.5 1443.48,-45.11 1452.67,-50.38 1453.95,-43.5"/>
</g>
<!-- &#45;41 -->
<g id="node41" class="node">
<title>&#45;41</title>
<polygon fill="lightgray" stroke="black" points="1821,-128.95 1792,-128.95 1792,-110.95 1821,-110.95 1821,-128.95"/>
<text text-anchor="middle" x="1806.5" y="-117.75" font-family="Times New Roman,serif" font-size="9.00">&#45;41</text>
</g>
<!-- &#45;41&#45;&gt;A XOR B -->
<g id="edge40" class="edge">
<title>&#45;41&#45;&gt;A XOR B</title>
<path fill="none" stroke="red" stroke-width="0.32" d="M1792,-113.55C1789.2,-112.61 1786.28,-111.7 1783.5,-110.95 1666.47,-79.53 1525.52,-56.18 1453.65,-45.29"/>
<polygon fill="red" stroke="red" stroke-width="0.32" points="1453.97,-41.8 1443.56,-43.78 1452.93,-48.72 1453.97,-41.8"/>
</g>
<!-- &#45;42 -->
<g id="node42" class="node">
<title>&#45;42</title>
<polygon fill="lightgray" stroke="black" points="1868,-128.95 1839,-128.95 1839,-110.95 1868,-110.95 1868,-128.95"/>
<text text-anchor="middle" x="1853.5" y="-117.75" font-family="Times New Roman,serif" font-size="9.00">&#45;42</text>
</g>
<!-- &#45;42&#45;&gt;A XOR B -->
<g id="edge41" class="edge">
<title>&#45;42&#45;&gt;A XOR B</title>
<path fill="none" stroke="green" stroke-width="0.37" d="M1838.52,-113.34C1835.87,-112.47 1833.12,-111.63 1830.5,-110.95 1695.88,-76.29 1532.86,-53.72 1453.91,-43.98"/>
<polygon fill="green" stroke="green" stroke-width="0.37" points="1454.15,-40.48 1443.8,-42.74 1453.3,-47.43 1454.15,-40.48"/>
</g>
<!-- &#45;43 -->
<g id="node43" class="node">
<title>&#45;43</title>
<polygon fill="lightgray" stroke="black" points="1915,-128.95 1886,-128.95 1886,-110.95 1915,-110.95 1915,-128.95"/>
<text text-anchor="middle" x="1900.5" y="-117.75" font-family="Times New Roman,serif" font-size="9.00">&#45;43</text>
</g>
<!-- &#45;43&#45;&gt;A XOR B -->
<g id="edge42" class="edge">
<title>&#45;43&#45;&gt;A XOR B</title>
<path fill="none" stroke="red" stroke-width="0.18" d="M1885.52,-113.31C1882.88,-112.43 1880.13,-111.61 1877.5,-110.95 1725.09,-73.06 1539.72,-51.51 1454.08,-42.9"/>
<polygon fill="red" stroke="red" stroke-width="0.18" points="1454.2,-39.4 1443.9,-41.89 1453.5,-46.36 1454.2,-39.4"/>
</g>
<!-- &#45;44 -->
<g id="node44" class="node">
<title>&#45;44</title>
<polygon fill="lightgray" stroke="black" points="1962,-128.95 1933,-128.95 1933,-110.95 1962,-110.95 1962,-128.95"/>
<text text-anchor="middle" x="1947.5" y="-117.75" font-family="Times New Roman,serif" font-size="9.00">&#45;44</text>
</g>
<!-- &#45;44&#45;&gt;A XOR B -->
<g id="edge43" class="edge">
<title>&#45;44&#45;&gt;A XOR B</title>
<path fill="none" stroke="red" stroke-width="0.11" d="M1932.53,-113.27C1929.88,-112.41 1927.13,-111.59 1924.5,-110.95 1754.08,-69.81 1546.1,-49.5 1454.14,-42.01"/>
<polygon fill="red" stroke="red" stroke-width="0.11" points="1454.28,-38.51 1444.03,-41.19 1453.72,-45.48 1454.28,-38.51"/>
</g>
<!-- &#45;45 -->
<g id="node45" class="node">
<title>&#45;45</title>
<polygon fill="lightgray" stroke="black" points="2945,-128.95 2916,-128.95 2916,-110.95 2945,-110.95 2945,-128.95"/>
<text text-anchor="middle" x="2930.5" y="-117.75" font-family="Times New Roman,serif" font-size="9.00">&#45;45</text>
</g>
<!-- &#45;46 -->
<g id="node46" class="node">
<title>&#45;46</title>
<polygon fill="lightgray" stroke="black" points="2009,-128.95 1980,-128.95 1980,-110.95 2009,-110.95 2009,-128.95"/>
<text text-anchor="middle" x="1994.5" y="-117.75" font-family="Times New Roman,serif" font-size="9.00">&#45;46</text>
</g>
<!-- &#45;46&#45;&gt;A XOR B -->
<g id="edge44" class="edge">
<title>&#45;46&#45;&gt;A XOR B</title>
<path fill="none" stroke="red" stroke-width="0.36" d="M1979.54,-113.25C1976.89,-112.38 1974.13,-111.57 1971.5,-110.95 1782.95,-66.58 1552.19,-47.68 1454.17,-41.25"/>
<polygon fill="red" stroke="red" stroke-width="0.36" points="1454.2,-37.74 1444,-40.6 1453.75,-44.73 1454.2,-37.74"/>
</g>
<!-- &#45;47 -->
<g id="node47" class="node">
<title>&#45;47</title>
<polygon fill="lightgray" stroke="black" points="2056,-128.95 2027,-128.95 2027,-110.95 2056,-110.95 2056,-128.95"/>
<text text-anchor="middle" x="2041.5" y="-117.75" font-family="Times New Roman,serif" font-size="9.00">&#45;47</text>
</g>
<!-- &#45;47&#45;&gt;A XOR B -->
<g id="edge45" class="edge">
<title>&#45;47&#45;&gt;A XOR B</title>
<path fill="none" stroke="red" stroke-width="0.32" d="M2026.54,-113.23C2023.89,-112.36 2021.14,-111.56 2018.5,-110.95 1811.6,-63.32 1557.74,-45.98 1454.03,-40.6"/>
<polygon fill="red" stroke="red" stroke-width="0.32" points="1454.05,-37.09 1443.89,-40.08 1453.7,-44.08 1454.05,-37.09"/>
</g>
<!-- &#45;48 -->
<g id="node48" class="node">
<title>&#45;48</title>
<polygon fill="lightgray" stroke="black" points="2103,-128.95 2074,-128.95 2074,-110.95 2103,-110.95 2103,-128.95"/>
<text text-anchor="middle" x="2088.5" y="-117.75" font-family="Times New Roman,serif" font-size="9.00">&#45;48</text>
</g>
<!-- &#45;48&#45;&gt;A XOR B -->
<g id="edge46" class="edge">
<title>&#45;48&#45;&gt;A XOR B</title>
<path fill="none" stroke="green" stroke-width="0.21" d="M2073.55,-113.21C2070.9,-112.35 2068.14,-111.55 2065.5,-110.95 1840.36,-60.1 1563.57,-44.45 1454.2,-40.05"/>
<polygon fill="green" stroke="green" stroke-width="0.21" points="1454.27,-36.55 1444.14,-39.66 1454,-43.54 1454.27,-36.55"/>
</g>
<!-- &#45;49 -->
<g id="node49" class="node">
<title>&#45;49</title>
<polygon fill="lightgray" stroke="black" points="2150,-128.95 2121,-128.95 2121,-110.95 2150,-110.95 2150,-128.95"/>
<text text-anchor="middle" x="2135.5" y="-117.75" font-family="Times New Roman,serif" font-size="9.00">&#45;49</text>
</g>
<!-- &#45;49&#45;&gt;A XOR B -->
<g id="edge47" class="edge">
<title>&#45;49&#45;&gt;A XOR B</title>
<path fill="none" stroke="green" stroke-width="0.44" d="M2120.55,-113.19C2117.9,-112.33 2115.14,-111.54 2112.5,-110.95 1869.01,-56.88 1569.15,-43.01 1454.32,-39.57"/>
<polygon fill="green" stroke="green" stroke-width="0.44" points="1454.21,-36.06 1444.11,-39.27 1454.01,-43.06 1454.21,-36.06"/>
</g>
<!-- &#45;50 -->
<g id="node50" class="node">
<title>&#45;50</title>
<polygon fill="lightgray" stroke="black" points="2197,-128.95 2168,-128.95 2168,-110.95 2197,-110.95 2197,-128.95"/>
<text text-anchor="middle" x="2182.5" y="-117.75" font-family="Times New Roman,serif" font-size="9.00">&#45;50</text>
</g>
<!-- &#45;50&#45;&gt;A XOR B -->
<g id="edge48" class="edge">
<title>&#45;50&#45;&gt;A XOR B</title>
<path fill="none" stroke="red" stroke-width="0.13" d="M2167.55,-113.18C2164.9,-112.32 2162.14,-111.53 2159.5,-110.95 1897.65,-53.68 1574.72,-41.66 1454.53,-39.14"/>
<polygon fill="red" stroke="red" stroke-width="0.13" points="1454.27,-35.64 1444.21,-38.94 1454.14,-42.64 1454.27,-35.64"/>
</g>
<!-- &#45;51 -->
<g id="node51" class="node">
<title>&#45;51</title>
<polygon fill="lightgray" stroke="black" points="2244,-128.95 2215,-128.95 2215,-110.95 2244,-110.95 2244,-128.95"/>
<text text-anchor="middle" x="2229.5" y="-117.75" font-family="Times New Roman,serif" font-size="9.00">&#45;51</text>
</g>
<!-- &#45;51&#45;&gt;A XOR B -->
<g id="edge49" class="edge">
<title>&#45;51&#45;&gt;A XOR B</title>
<path fill="none" stroke="red" stroke-width="0.14" d="M2214.56,-113.17C2211.9,-112.31 2209.14,-111.52 2206.5,-110.95 1926.02,-50.42 1579.62,-40.37 1454.44,-38.76"/>
<polygon fill="red" stroke="red" stroke-width="0.14" points="1454.11,-35.26 1444.07,-38.64 1454.03,-42.26 1454.11,-35.26"/>
</g>
<!-- &#45;52 -->
<g id="node52" class="node">
<title>&#45;52</title>
<polygon fill="lightgray" stroke="black" points="2291,-128.95 2262,-128.95 2262,-110.95 2291,-110.95 2291,-128.95"/>
<text text-anchor="middle" x="2276.5" y="-117.75" font-family="Times New Roman,serif" font-size="9.00">&#45;52</text>
</g>
<!-- &#45;52&#45;&gt;A XOR B -->
<g id="edge50" class="edge">
<title>&#45;52&#45;&gt;A XOR B</title>
<path fill="none" stroke="green" stroke-width="0.7" d="M2261.56,-113.16C2258.91,-112.3 2256.15,-111.52 2253.5,-110.95 1954.16,-47.14 1583.96,-39.15 1454.15,-38.42"/>
<polygon fill="green" stroke="green" stroke-width="0.7" points="1454.16,-34.92 1444.14,-38.38 1454.12,-41.92 1454.16,-34.92"/>
</g>
<!-- &#45;53 -->
<g id="node53" class="node">
<title>&#45;53</title>
<polygon fill="lightgray" stroke="black" points="2338,-128.95 2309,-128.95 2309,-110.95 2338,-110.95 2338,-128.95"/>
<text text-anchor="middle" x="2323.5" y="-117.75" font-family="Times New Roman,serif" font-size="9.00">&#45;53</text>
</g>
<!-- &#45;53&#45;&gt;A XOR B -->
<g id="edge51" class="edge">
<title>&#45;53&#45;&gt;A XOR B</title>
<path fill="none" stroke="green" stroke-width="0.11" d="M2308.56,-113.15C2305.91,-112.29 2303.15,-111.51 2300.5,-110.95 1982.66,-43.93 1589.21,-38.01 1454.41,-38.12"/>
<polygon fill="green" stroke="green" stroke-width="0.11" points="1454.02,-34.62 1444.03,-38.14 1454.04,-41.62 1454.02,-34.62"/>
</g>
<!-- &#45;54 -->
<g id="node54" class="node">
<title>&#45;54</title>
<polygon fill="lightgray" stroke="black" points="2385,-128.95 2356,-128.95 2356,-110.95 2385,-110.95 2385,-128.95"/>
<text text-anchor="middle" x="2370.5" y="-117.75" font-family="Times New Roman,serif" font-size="9.00">&#45;54</text>
</g>
<!-- &#45;54&#45;&gt;A XOR B -->
<g id="edge52" class="edge">
<title>&#45;54&#45;&gt;A XOR B</title>
<path fill="none" stroke="green" stroke-width="0.14" d="M2355.56,-113.14C2352.91,-112.28 2350.15,-111.51 2347.5,-110.95 2011.02,-40.71 1594.1,-36.92 1454.53,-37.84"/>
<polygon fill="green" stroke="green" stroke-width="0.14" points="1454.17,-34.34 1444.2,-37.92 1454.22,-41.34 1454.17,-34.34"/>
</g>
<!-- &#45;55 -->
<g id="node55" class="node">
<title>&#45;55</title>
<polygon fill="lightgray" stroke="black" points="2432,-128.95 2403,-128.95 2403,-110.95 2432,-110.95 2432,-128.95"/>
<text text-anchor="middle" x="2417.5" y="-117.75" font-family="Times New Roman,serif" font-size="9.00">&#45;55</text>
</g>
<!-- &#45;55&#45;&gt;A XOR B -->
<g id="edge53" class="edge">
<title>&#45;55&#45;&gt;A XOR B</title>
<path fill="none" stroke="green" stroke-width="0.2" d="M2402.57,-113.13C2399.91,-112.28 2397.15,-111.5 2394.5,-110.95 2211.28,-73.05 1625.86,-47.22 1454.22,-40.32"/>
<polygon fill="green" stroke="green" stroke-width="0.2" points="1454.13,-36.82 1443.99,-39.92 1453.85,-43.81 1454.13,-36.82"/>
</g>
<!-- &#45;56 -->
<g id="node56" class="node">
<title>&#45;56</title>
<polygon fill="lightgray" stroke="black" points="2479,-128.95 2450,-128.95 2450,-110.95 2479,-110.95 2479,-128.95"/>
<text text-anchor="middle" x="2464.5" y="-117.75" font-family="Times New Roman,serif" font-size="9.00">&#45;56</text>
</g>
<!-- &#45;56&#45;&gt;A XOR B -->
<g id="edge54" class="edge">
<title>&#45;56&#45;&gt;A XOR B</title>
<path fill="none" stroke="green" stroke-width="0.64" d="M2449.57,-113.12C2446.91,-112.27 2444.15,-111.5 2441.5,-110.95 2248.71,-71.41 1630.91,-46.56 1454.16,-40.14"/>
<polygon fill="green" stroke="green" stroke-width="0.64" points="1454.25,-36.64 1444.13,-39.78 1453.99,-43.64 1454.25,-36.64"/>
</g>
<!-- &#45;57 -->
<g id="node57" class="node">
<title>&#45;57</title>
<polygon fill="lightgray" stroke="black" points="2526,-128.95 2497,-128.95 2497,-110.95 2526,-110.95 2526,-128.95"/>
<text text-anchor="middle" x="2511.5" y="-117.75" font-family="Times New Roman,serif" font-size="9.00">&#45;57</text>
</g>
<!-- &#45;57&#45;&gt;A XOR B -->
<g id="edge55" class="edge">
<title>&#45;57&#45;&gt;A XOR B</title>
<path fill="none" stroke="green" stroke-width="0.36" d="M2496.57,-113.11C2493.91,-112.26 2491.15,-111.49 2488.5,-110.95 2286.15,-69.76 1636.1,-45.95 1454.2,-39.97"/>
<polygon fill="green" stroke="green" stroke-width="0.36" points="1454.25,-36.47 1444.14,-39.65 1454.02,-43.47 1454.25,-36.47"/>
</g>
<!-- &#45;58 -->
<g id="node58" class="node">
<title>&#45;58</title>
<polygon fill="lightgray" stroke="black" points="2573,-128.95 2544,-128.95 2544,-110.95 2573,-110.95 2573,-128.95"/>
<text text-anchor="middle" x="2558.5" y="-117.75" font-family="Times New Roman,serif" font-size="9.00">&#45;58</text>
</g>
<!-- &#45;58&#45;&gt;A XOR B -->
<g id="edge56" class="edge">
<title>&#45;58&#45;&gt;A XOR B</title>
<path fill="none" stroke="green" stroke-width="0.11" d="M2543.57,-113.11C2540.92,-112.26 2538.15,-111.49 2535.5,-110.95 2323.53,-68.11 1640.83,-45.35 1454.1,-39.82"/>
<polygon fill="green" stroke="green" stroke-width="0.11" points="1454.14,-36.32 1444.04,-39.52 1453.94,-43.32 1454.14,-36.32"/>
</g>
<!-- &#45;59 -->
<g id="node59" class="node">
<title>&#45;59</title>
<polygon fill="lightgray" stroke="black" points="2620,-128.95 2591,-128.95 2591,-110.95 2620,-110.95 2620,-128.95"/>
<text text-anchor="middle" x="2605.5" y="-117.75" font-family="Times New Roman,serif" font-size="9.00">&#45;59</text>
</g>
<!-- &#45;59&#45;&gt;A XOR B -->
<g id="edge57" class="edge">
<title>&#45;59&#45;&gt;A XOR B</title>
<path fill="none" stroke="green" stroke-width="0.19" d="M2590.57,-113.1C2587.92,-112.25 2585.15,-111.49 2582.5,-110.95 2360.96,-66.47 1645.9,-44.79 1454.18,-39.68"/>
<polygon fill="green" stroke="green" stroke-width="0.19" points="1454.22,-36.18 1444.13,-39.41 1454.04,-43.18 1454.22,-36.18"/>
</g>
<!-- &#45;60 -->
<g id="node60" class="node">
<title>&#45;60</title>
<polygon fill="lightgray" stroke="black" points="2667,-128.95 2638,-128.95 2638,-110.95 2667,-110.95 2667,-128.95"/>
<text text-anchor="middle" x="2652.5" y="-117.75" font-family="Times New Roman,serif" font-size="9.00">&#45;60</text>
</g>
<!-- &#45;60&#45;&gt;A XOR B -->
<g id="edge58" class="edge">
<title>&#45;60&#45;&gt;A XOR B</title>
<path fill="none" stroke="green" stroke-width="0.11" d="M2637.57,-113.1C2634.92,-112.25 2632.15,-111.48 2629.5,-110.95 2398.32,-64.82 1650.59,-44.24 1454.14,-39.55"/>
<polygon fill="green" stroke="green" stroke-width="0.11" points="1454.21,-36.05 1444.13,-39.31 1454.04,-43.05 1454.21,-36.05"/>
</g>
<!-- &#45;61 -->
<g id="node61" class="node">
<title>&#45;61</title>
<polygon fill="lightgray" stroke="black" points="2714,-128.95 2685,-128.95 2685,-110.95 2714,-110.95 2714,-128.95"/>
<text text-anchor="middle" x="2699.5" y="-117.75" font-family="Times New Roman,serif" font-size="9.00">&#45;61</text>
</g>
<!-- &#45;61&#45;&gt;A XOR B -->
<g id="edge59" class="edge">
<title>&#45;61&#45;&gt;A XOR B</title>
<path fill="none" stroke="green" stroke-width="0.24" stroke-dasharray="1,5" d="M2684.57,-113.09C2681.92,-112.24 2679.15,-111.48 2676.5,-110.95 2435.75,-63.19 1655.66,-43.73 1454.29,-39.43"/>
<polygon fill="green" stroke="green" stroke-width="0.24" points="1454.11,-35.93 1444.04,-39.22 1453.96,-42.93 1454.11,-35.93"/>
</g>
<!-- &#45;62 -->
<g id="node62" class="node">
<title>&#45;62</title>
<polygon fill="lightgray" stroke="black" points="2761,-128.95 2732,-128.95 2732,-110.95 2761,-110.95 2761,-128.95"/>
<text text-anchor="middle" x="2746.5" y="-117.75" font-family="Times New Roman,serif" font-size="9.00">&#45;62</text>
</g>
<!-- &#45;62&#45;&gt;A XOR B -->
<g id="edge60" class="edge">
<title>&#45;62&#45;&gt;A XOR B</title>
<path fill="none" stroke="green" stroke-width="0.33" d="M2731.57,-113.09C2728.92,-112.24 2726.15,-111.48 2723.5,-110.95 2473.15,-61.54 1660.49,-43.23 1454.37,-39.32"/>
<polygon fill="green" stroke="green" stroke-width="0.33" points="1454.24,-35.82 1444.18,-39.13 1454.11,-42.82 1454.24,-35.82"/>
</g>
<!-- &#45;63 -->
<g id="node63" class="node">
<title>&#45;63</title>
<polygon fill="lightgray" stroke="black" points="2808,-128.95 2779,-128.95 2779,-110.95 2808,-110.95 2808,-128.95"/>
<text text-anchor="middle" x="2793.5" y="-117.75" font-family="Times New Roman,serif" font-size="9.00">&#45;63</text>
</g>
<!-- &#45;63&#45;&gt;A XOR B -->
<g id="edge61" class="edge">
<title>&#45;63&#45;&gt;A XOR B</title>
<path fill="none" stroke="red" stroke-width="0.5" d="M2778.57,-113.08C2775.92,-112.24 2773.16,-111.47 2770.5,-110.95 2510.49,-59.89 1664.99,-42.75 1454.36,-39.22"/>
<polygon fill="red" stroke="red" stroke-width="0.5" points="1454.3,-35.71 1444.24,-39.05 1454.18,-42.71 1454.3,-35.71"/>
</g>
<!-- &#45;64 -->
<g id="node64" class="node">
<title>&#45;64</title>
<polygon fill="lightgray" stroke="black" points="2855,-128.95 2826,-128.95 2826,-110.95 2855,-110.95 2855,-128.95"/>
<text text-anchor="middle" x="2840.5" y="-117.75" font-family="Times New Roman,serif" font-size="9.00">&#45;64</text>
</g>
<!-- &#45;64&#45;&gt;A XOR B -->
<g id="edge62" class="edge">
<title>&#45;64&#45;&gt;A XOR B</title>
<path fill="none" stroke="green" stroke-width="0.21" d="M2825.57,-113.08C2822.92,-112.23 2820.16,-111.47 2817.5,-110.95 2547.78,-58.23 1669.17,-42.28 1454.26,-39.12"/>
<polygon fill="green" stroke="green" stroke-width="0.21" points="1454.29,-35.62 1444.24,-38.97 1454.19,-42.62 1454.29,-35.62"/>
</g>
</g>
</svg>
